<svg width="50" height="50" viewBox="0 0 50 50" fill="none" xmlns="http://www.w3.org/2000/svg">
<g clip-path="url(#clip0_553_1260)">
<path d="M36.6219 49.9998C36.2527 49.4611 35.778 48.9668 35.538 48.3759C35.1323 47.3768 34.5062 46.8433 33.4119 46.8473C33.0597 46.8473 32.7076 46.7351 32.3554 46.6725C31.6015 46.5381 31.3002 46.1168 31.4098 45.3629C31.4372 45.1712 31.4515 44.9768 31.4776 44.729C31.0433 44.729 30.6402 44.729 30.2372 44.729C29.1142 44.729 27.9911 44.7342 26.8694 44.7264C26.2146 44.7212 25.7725 44.3012 25.7881 43.726C25.8038 43.1704 26.2342 42.7817 26.872 42.7778C28.2716 42.7712 29.6711 42.7752 31.0706 42.7752C31.2272 42.7752 31.3837 42.7752 31.6602 42.7752C31.1124 42.2065 30.6454 41.7213 30.1759 41.236C29.4259 40.46 29.422 40.0687 30.1576 39.3069C30.6089 38.8387 31.0785 38.3848 31.5011 37.8918C31.6354 37.7339 31.7163 37.4626 31.6967 37.2552C31.6263 36.5274 31.4998 35.8061 31.3967 35.0822C31.3067 34.4431 31.6028 34.0062 32.2419 33.881C32.9593 33.7401 33.6806 33.6123 34.4019 33.5014C34.6993 33.4557 34.8949 33.3423 35.0345 33.0579C35.3475 32.4162 35.6906 31.7875 36.0336 31.1601C36.3793 30.5275 36.8488 30.371 37.5023 30.6775C38.1349 30.9736 38.7688 31.271 39.3831 31.6023C39.6909 31.7692 39.9375 31.7523 40.2427 31.5971C41.05 31.1862 41.8744 30.8106 42.7509 30.3932V21.4638C42.6335 21.6007 42.5435 21.7012 42.46 21.8068C40.2244 24.6463 37.3158 26.1828 33.6897 26.2754C31.9498 26.3198 30.2072 26.2859 28.4659 26.2885C28.2885 26.2885 28.1111 26.2885 27.8816 26.2885C27.8724 26.492 27.8581 26.6641 27.8581 26.8376C27.8555 28.0897 27.862 29.3432 27.8542 30.5954C27.8503 31.3701 27.4903 31.7327 26.7155 31.734C23.8186 31.7393 20.923 31.7393 18.0261 31.734C17.2305 31.7327 16.8809 31.3675 16.8783 30.5549C16.8744 29.158 16.8783 27.7611 16.8783 26.3133C16.6709 26.3041 16.5 26.2898 16.3279 26.2898C14.5866 26.2872 12.8453 26.3185 11.104 26.278C7.42323 26.1907 4.47155 24.6424 2.2255 21.7351C2.1668 21.6581 2.1042 21.5838 1.99985 21.452C1.98029 21.6059 1.95681 21.7051 1.95681 21.8042C1.9555 28.361 1.9542 34.9166 1.95681 41.4734C1.95681 42.3552 2.38854 42.7765 3.28331 42.7765C8.05062 42.7778 12.8192 42.7765 17.5865 42.7765C17.7496 42.7765 17.9139 42.7673 18.0744 42.7869C18.5739 42.8469 18.9404 43.2564 18.9443 43.7443C18.9482 44.2308 18.5883 44.6495 18.0913 44.716C17.9152 44.7395 17.7339 44.729 17.5552 44.729C12.9666 44.729 8.378 44.729 3.78939 44.729C1.54725 44.729 0.818133 44.2412 0.00292969 42.1908V11.9213C0.849437 9.85658 1.55769 9.38964 3.85069 9.38964C5.95065 9.38964 8.04931 9.38964 10.1493 9.38964C10.3214 9.38964 10.4923 9.37529 10.7023 9.36616C10.7023 9.12616 10.7023 8.93312 10.7023 8.74008C10.7088 7.21141 10.6658 5.67883 10.7362 4.15277C10.8367 1.88063 12.7358 0.0363188 15.0066 0.0219712C19.9213 -0.00802828 24.836 -0.00933261 29.7507 0.0232755C31.9785 0.0376231 33.8736 1.85455 33.9936 4.07973C34.0784 5.63709 34.0289 7.20228 34.038 8.76356C34.038 8.95399 34.038 9.14442 34.038 9.38964H34.6145C36.8436 9.38964 39.074 9.38964 41.3031 9.38964C43.4904 9.38964 44.7269 10.6209 44.7282 12.8004C44.7282 19.5034 44.7321 26.2076 44.7204 32.9105C44.7204 33.2953 44.8235 33.4518 45.2134 33.5027C45.9373 33.5966 46.6573 33.7375 47.3747 33.8797C48.0125 34.0062 48.3073 34.4392 48.2186 35.0861C48.1195 35.8114 47.9917 36.5326 47.9212 37.2592C47.9017 37.4652 47.9786 37.7352 48.1117 37.8904C48.5473 38.3952 49.0299 38.8583 49.4916 39.3382C50.1751 40.0478 50.1777 40.4691 49.5047 41.1656C49.0403 41.6456 48.5577 42.1086 48.1208 42.6108C47.9851 42.766 47.8991 43.036 47.9186 43.2408C47.9877 43.9686 48.1156 44.6899 48.2173 45.4138C48.3099 46.0738 47.9969 46.5186 47.3434 46.6542C47.0565 46.7129 46.7656 46.7938 46.4773 46.7925C45.1665 46.7859 44.3904 47.4355 43.9326 48.642C43.7422 49.1429 43.2987 49.5485 42.97 49.9972H42.3844C41.6057 49.6085 40.8309 49.2107 40.0431 48.8403C39.9101 48.7777 39.6948 48.7855 39.5579 48.8481C38.7675 49.2159 37.9901 49.6111 37.2088 49.9972H36.6232L36.6219 49.9998ZM22.3656 11.3435C16.02 11.3435 9.6758 11.3435 3.33026 11.3435C2.37028 11.3435 1.95811 11.7544 1.9555 12.7013C1.9529 13.5309 1.94768 14.3604 1.95811 15.19C2.02202 20.1516 6.08369 24.2863 11.0427 24.3163C18.5922 24.3607 26.1416 24.3542 33.6897 24.3176C37.8388 24.2981 41.4831 21.3346 42.4952 17.3121C42.867 15.8356 42.7587 14.3396 42.7744 12.8474C42.7861 11.697 42.4183 11.3422 41.2561 11.3422C34.9601 11.3422 28.6629 11.3422 22.3669 11.3422L22.3656 11.3435ZM42.2344 32.7918C41.6005 33.101 40.9979 33.3827 40.407 33.6853C39.9961 33.8966 39.6101 33.8966 39.1992 33.6827C38.611 33.3775 38.011 33.0971 37.3784 32.7892C37.1045 33.3031 36.811 33.7727 36.5984 34.2762C36.3062 34.9675 35.8223 35.3053 35.0775 35.3679C34.5375 35.4135 34.0067 35.5557 33.4563 35.6574C33.5502 36.3553 33.6076 36.9879 33.7276 37.6087C33.8254 38.1135 33.6754 38.4917 33.3258 38.8387C32.8654 39.2952 32.4245 39.77 31.835 40.383C32.3476 40.8304 32.8393 41.253 33.3245 41.6834C33.695 42.0121 33.8228 42.4073 33.7289 42.9108C33.6089 43.5551 33.5515 44.2125 33.4654 44.8738C34.1502 44.9964 34.7541 45.1242 35.3632 45.2077C35.8758 45.2781 36.2266 45.5155 36.4549 45.9864C36.7366 46.5655 37.0588 47.1251 37.3823 47.7264C37.9927 47.4303 38.5692 47.1733 39.1236 46.8733C39.6009 46.6151 40.0392 46.6294 40.51 46.8812C41.0657 47.1772 41.6396 47.4368 42.2331 47.7264C42.5604 47.112 42.8774 46.5473 43.1643 45.9668C43.3874 45.5168 43.7265 45.2847 44.2209 45.2142C44.8574 45.1242 45.49 44.9951 46.1513 44.8777C46.056 44.1656 45.9856 43.5043 45.876 42.8495C45.7991 42.3878 45.9334 42.0278 46.2595 41.7056C46.7291 41.2413 47.1804 40.7587 47.7921 40.1274C47.256 39.6656 46.7486 39.2339 46.2465 38.793C45.9139 38.5022 45.8017 38.1396 45.8734 37.6961C45.9804 37.0283 46.056 36.354 46.1486 35.6496C45.4521 35.5218 44.8013 35.3809 44.1452 35.287C43.677 35.2205 43.3809 34.9805 43.1748 34.5736C42.8813 33.9944 42.5696 33.4257 42.2344 32.7944V32.7918ZM32.0463 9.36224C32.0463 7.58184 32.1037 5.84187 32.0267 4.10712C31.9732 2.90453 30.8711 1.99281 29.6359 1.96802C28.6929 1.94976 27.7485 1.96281 26.8055 1.96281C22.9499 1.96281 19.093 1.95889 15.2374 1.96542C13.8549 1.96802 12.7384 2.89931 12.6888 4.21016C12.6249 5.89926 12.6731 7.59097 12.6758 9.28268C12.6758 9.30746 12.7097 9.33224 12.7318 9.36094H14.6048C14.6048 9.15486 14.6048 8.97877 14.6048 8.80269C14.6048 7.5988 14.6022 6.3949 14.6048 5.19101C14.6075 4.22581 14.9257 3.91538 15.9013 3.91538C20.0334 3.91538 24.1669 3.91538 28.299 3.91538C30.0154 3.91538 30.1315 4.03016 30.1315 5.73361C30.1315 6.93359 30.1315 8.13357 30.1315 9.36094H32.0463V9.36224ZM16.5861 9.36485H28.1477V5.90448H16.5861V9.36485ZM18.8726 26.3133V29.7475H25.8664V26.3133H18.8726Z" fill="black"/>
<path d="M22.3757 42.7792C22.9157 42.7844 23.3578 43.2475 23.3383 43.7862C23.32 44.3066 22.8765 44.7305 22.3561 44.7253C21.8174 44.7201 21.3727 44.2544 21.3922 43.7183C21.4105 43.2005 21.8566 42.774 22.3757 42.7792Z" fill="black"/>
<path d="M39.2041 40.6245C40.1289 39.6971 40.9715 38.8415 41.8297 38.0015C41.998 37.8371 42.2093 37.6741 42.4297 37.6154C42.8601 37.5006 43.2371 37.6467 43.4771 38.0419C43.7275 38.4554 43.6871 38.8702 43.3571 39.2067C42.208 40.378 41.0484 41.5414 39.8732 42.6866C39.4897 43.0596 38.985 43.0623 38.5937 42.697C37.9285 42.0762 37.2841 41.4318 36.6607 40.7706C36.2941 40.3819 36.332 39.8093 36.6881 39.4467C37.0454 39.0828 37.5946 39.0528 38.0106 39.3958C38.2232 39.5706 38.4137 39.7741 38.6054 39.9723C38.7971 40.1706 38.9784 40.378 39.2041 40.6258V40.6245Z" fill="black"/>
</g>
<defs>
<clipPath id="clip0_553_1260">
<rect width="50.0065" height="50" fill="white"/>
</clipPath>
</defs>
</svg>
