<svg width="42" height="56" viewBox="0 0 42 56" fill="none" xmlns="http://www.w3.org/2000/svg">
<g clip-path="url(#clip0_89_2006)">
<path d="M38.0269 20.1118H31.4185C31.3887 20.5989 31.3638 21.0611 31.3307 21.5233C31.286 22.1644 30.9066 22.5455 30.3466 22.5156C29.8115 22.4891 29.4852 22.0998 29.4819 21.4786C29.4802 21.0379 29.4819 20.5972 29.4819 20.1201H27.5436C27.6115 20.5326 27.6778 20.9368 27.744 21.3427C27.754 21.4024 27.7689 21.462 27.7755 21.5216C27.8931 22.4742 27.6181 23.0242 26.9853 23.1087C26.3442 23.1932 26.0079 22.7724 25.9051 21.7536C25.6815 19.5254 24.217 17.7362 22.1512 17.1679C20.0837 16.598 17.9283 17.3303 16.6411 19.0449C15.9519 19.9644 15.6339 21.0097 15.5726 22.1512C15.5394 22.7492 15.1833 23.0971 14.6846 23.1137C14.1329 23.1319 13.7039 22.7144 13.7337 22.0948C13.7635 21.4521 13.8728 20.8142 13.9524 20.13H12.0339C12.0339 20.516 12.0257 20.8938 12.0339 21.2715C12.0538 22.0832 11.7556 22.5057 11.1394 22.5156C10.5463 22.5256 10.2232 22.1346 10.1851 21.3659C10.1652 20.9633 10.1338 20.5608 10.1056 20.1218H3.50216C3.52535 20.4647 3.54358 20.7828 3.57008 21.0992C3.62475 21.7519 3.32987 22.1976 2.79146 22.2688C2.21163 22.345 1.78089 21.9772 1.71297 21.3046C1.16627 15.9023 2.57443 11.0615 6.05838 6.90163C9.64505 2.62083 14.282 0.309791 19.8749 0.0248458C29.7105 -0.477121 37.9971 6.61503 39.6156 15.7233C39.9403 17.5506 40.0298 19.3779 39.8227 21.2218C39.7415 21.9474 39.3555 22.3367 38.7575 22.2721C38.1909 22.2108 37.8944 21.7585 37.9573 21.0661C37.9855 20.7662 38.0021 20.4647 38.0269 20.1118ZM19.7821 10.4336C19.6894 10.4121 19.6314 10.3806 19.5784 10.3872C17.481 10.6755 15.3837 10.9571 13.293 11.2769C13.1257 11.3017 12.9054 11.5684 12.8689 11.7556C12.6055 13.081 12.3504 14.4096 12.1582 15.7465C12.0422 16.5517 12.0389 17.3734 11.9826 18.2365C12.9435 18.2365 13.79 18.2481 14.6349 18.2265C14.789 18.2232 14.9944 18.1238 15.0855 18.0029C16.27 16.4274 17.8455 15.4997 19.7838 15.165V10.4353L19.7821 10.4336ZM29.4454 18.2332C29.4802 18.1172 29.5183 18.0592 29.5117 18.0079C29.2267 15.8907 28.9484 13.7734 28.632 11.6612C28.6072 11.4972 28.3288 11.2885 28.1367 11.2487C27.0515 11.0151 25.9631 10.7865 24.8664 10.6357C23.8376 10.4933 22.7956 10.4469 21.7403 10.3574V15.17C23.6935 15.498 25.2458 16.4274 26.422 17.983C26.5082 18.0973 26.6722 18.2199 26.803 18.2232C27.686 18.2448 28.5707 18.2348 29.4454 18.2348V18.2332ZM26.5098 2.91074C28.1748 4.88714 29.2566 7.12694 30.0236 9.53406C30.0683 9.67653 30.2373 9.83392 30.3831 9.88196C32.7786 10.6755 35.0333 11.7275 36.9998 13.404C36.304 9.50424 30.5421 3.73907 26.5115 2.90909L26.5098 2.91074ZM14.943 2.90577C9.87532 4.80927 6.39966 8.27997 4.51107 13.3361C6.49077 11.7324 8.74051 10.6755 11.1327 9.88362C11.2885 9.83226 11.4574 9.64174 11.5104 9.47939C12.2858 7.09546 13.3543 4.86891 14.943 2.90577ZM37.8546 18.21C37.853 16.1392 33.978 12.8109 30.7956 12.1035C31.0275 14.128 31.2611 16.1607 31.498 18.21H37.8546ZM10.7335 12.0538C9.0851 12.6569 7.53778 13.4239 6.16275 14.5123C5.15219 15.3125 4.29404 16.2435 3.7987 17.4579C3.70593 17.6848 3.66783 17.935 3.59493 18.2067H10.0228C10.258 16.159 10.4916 14.1412 10.7318 12.0522L10.7335 12.0538ZM13.7237 9.12487C15.7283 8.89293 17.7428 8.65935 19.7672 8.4241V2.00621C17.3353 2.52474 14.1611 6.30524 13.7237 9.12487ZM27.7838 9.1199C27.3613 6.26216 24.0397 2.34914 21.7486 2.02609V8.42576C23.7946 8.661 25.7892 8.88962 27.7838 9.1199Z" fill="black"/>
<path d="M25.6666 33.9432V54.0981C26.1338 54.0981 26.5744 54.0981 27.0134 54.0981C28.6535 54.0981 30.2936 54.0948 31.9321 54.0998C32.6461 54.1014 33.0503 54.4311 33.0652 55.0027C33.0818 55.6057 32.6825 55.9519 31.9287 55.9552C26.9704 55.9751 22.012 55.995 17.0536 56.0016C14.7061 56.0049 12.3586 55.9734 10.0112 55.9585C9.82893 55.9585 9.6467 55.9635 9.46447 55.9552C8.82997 55.9238 8.47213 55.6007 8.46053 55.054C8.44894 54.4907 8.8366 54.1081 9.47938 54.1031C11.3415 54.0915 13.2035 54.0998 15.0656 54.0981C15.3075 54.0981 15.5494 54.0981 15.8393 54.0981V34.0393C14.5852 33.6036 13.2996 33.2391 12.0853 32.7173C8.96416 31.3754 6.40296 29.3211 4.53922 26.4535C3.61978 25.0403 3.84177 23.387 5.04616 22.4112C6.26546 21.4239 7.89893 21.5332 9.10829 22.7127C11.2288 24.7802 13.6045 26.4767 16.328 27.6562C16.7389 27.8351 17.2176 27.9295 17.6682 27.9345C19.7523 27.9627 21.838 27.961 23.9238 27.9345C24.3346 27.9295 24.7736 27.8434 25.1497 27.6811C27.8882 26.4883 30.2986 24.8018 32.4175 22.7045C33.2508 21.8794 34.2265 21.5564 35.3564 21.8463C37.3112 22.3483 38.1644 24.5533 37.0793 26.3044C35.5734 28.7347 33.4893 30.5603 31.0176 31.9585C29.3526 32.9012 27.5668 33.5373 25.6682 33.9449L25.6666 33.9432ZM23.7879 54.065C23.7879 53.4553 23.7879 52.8921 23.7879 52.3288C23.7879 46.0335 23.7879 39.7382 23.7879 33.4429C23.7879 32.6063 23.9917 32.3644 24.7952 32.2087C24.9741 32.1739 25.153 32.1391 25.3303 32.0994C29.4222 31.1981 32.7968 29.1836 35.2354 25.7179C35.8269 24.878 35.8335 24.3346 35.3199 23.8807C34.7915 23.4135 34.263 23.5262 33.4877 24.2634C31.1203 26.5148 28.4846 28.3636 25.433 29.573C25.0868 29.7105 24.6925 29.7834 24.3197 29.7867C22.0534 29.8065 19.7854 29.8231 17.5191 29.7784C16.8913 29.7668 16.2187 29.6492 15.6554 29.3874C14.4659 28.8391 13.2615 28.2675 12.1963 27.5154C10.6473 26.4236 9.211 25.1712 7.73989 23.9718C7.22301 23.551 6.71773 23.4798 6.25884 23.8326C5.78337 24.1988 5.70386 24.7604 6.05175 25.3485C6.18594 25.5738 6.33007 25.7958 6.48745 26.0062C8.96416 29.3195 12.2824 31.2843 16.3032 32.1027C17.6136 32.3694 17.7378 32.4738 17.7378 33.7925C17.7378 40.3114 17.7378 46.8287 17.7378 53.3476C17.7378 53.5829 17.7378 53.8165 17.7378 54.0468H19.8202C19.8202 53.7602 19.8202 53.5183 19.8202 53.2764C19.8202 50.422 19.8186 47.5676 19.8236 44.7131C19.8236 44.4729 19.7904 44.1681 19.918 44.0091C20.1234 43.7523 20.4547 43.4292 20.7264 43.4359C21.0296 43.4441 21.3825 43.7374 21.6028 44.0008C21.742 44.1665 21.7022 44.5028 21.7022 44.7628C21.7072 47.6372 21.7055 50.5115 21.7055 53.3858V54.0617H23.7896L23.7879 54.065Z" fill="black"/>
<path d="M20.7712 27.5137C18.3061 27.5186 16.2916 25.476 16.2883 22.9711C16.285 20.4729 18.3095 18.3971 20.753 18.3921C23.1983 18.3871 25.2293 20.453 25.2359 22.9529C25.2426 25.4644 23.2413 27.5087 20.7712 27.5137ZM23.354 22.9429C23.3457 21.437 22.1794 20.2509 20.7282 20.2707C19.3001 20.2906 18.1769 21.4669 18.172 22.9512C18.167 24.4522 19.3283 25.6648 20.7663 25.6615C22.2043 25.6599 23.3623 24.4422 23.354 22.9429Z" fill="black"/>
<path d="M1.46955 37.1985C1.21773 37.1737 0.929476 37.1787 0.661097 37.1091C0.217113 36.9948 -0.0794286 36.6502 0.0199708 36.2211C0.0945204 35.903 0.382779 35.4624 0.651157 35.3978C1.20282 35.2685 1.81082 35.3 2.38402 35.3713C2.83132 35.4259 3.05165 35.7954 3.04171 36.2576C3.03177 36.7214 2.78825 37.0246 2.34261 37.124C2.07091 37.1853 1.78265 37.1754 1.46955 37.1985Z" fill="black"/>
<path d="M39.9785 37.1969C39.7151 37.1753 39.4467 37.1853 39.1949 37.1289C38.7211 37.0213 38.4742 36.7015 38.4842 36.2112C38.4925 35.7473 38.7393 35.4077 39.1866 35.3563C39.7217 35.2934 40.2767 35.2901 40.8118 35.3563C41.2872 35.4143 41.5407 35.7804 41.5291 36.2642C41.5175 36.7198 41.2657 37.0296 40.8201 37.1273C40.5484 37.1869 40.2601 37.177 39.9801 37.2002L39.9785 37.1969Z" fill="black"/>
<path d="M35.3266 37.1952C35.0582 37.1753 34.7914 37.1836 34.538 37.1289C34.0609 37.0229 33.8091 36.6866 33.8173 36.2111C33.8256 35.7638 34.0725 35.406 34.5264 35.353C35.0615 35.2917 35.6165 35.2867 36.1516 35.3497C36.6303 35.4077 36.8838 35.7837 36.8739 36.2575C36.8639 36.7015 36.6138 37.0262 36.1632 37.1223C35.8898 37.1803 35.6032 37.172 35.3266 37.1935V37.1952Z" fill="black"/>
<path d="M6.1645 37.1737C5.98226 37.1737 5.80003 37.1853 5.61945 37.1721C5.03134 37.124 4.63209 36.7314 4.64203 36.2211C4.65197 35.7291 5.03134 35.3431 5.58964 35.305C5.9922 35.2785 6.39974 35.2768 6.80065 35.3083C7.35563 35.3514 7.73998 35.754 7.71016 36.251C7.67702 36.791 7.35895 37.0959 6.83047 37.1621C6.61179 37.1903 6.38649 37.1671 6.1645 37.1671C6.1645 37.1687 6.1645 37.1721 6.1645 37.1737Z" fill="black"/>
<path d="M7.17822 47.652C6.93635 47.652 6.68785 47.6868 6.4526 47.6454C5.95229 47.5559 5.66403 47.2412 5.67563 46.7226C5.68557 46.2058 5.97052 45.8811 6.48242 45.833C6.92309 45.7916 7.37039 45.8015 7.81272 45.8231C8.36107 45.8512 8.73713 46.2505 8.72719 46.7525C8.71725 47.2561 8.33954 47.6239 7.7829 47.6603C7.58244 47.6736 7.37867 47.662 7.17656 47.662C7.17656 47.6587 7.17656 47.6553 7.17656 47.652H7.17822Z" fill="black"/>
<path d="M34.3342 47.657C34.1122 47.657 33.8885 47.6735 33.6682 47.6537C33.1563 47.6056 32.7968 47.2213 32.7935 46.7408C32.7902 46.2637 33.1497 45.8612 33.6583 45.8247C34.0807 45.7949 34.5065 45.7982 34.9289 45.8181C35.4988 45.8446 35.85 46.2057 35.8517 46.7292C35.855 47.2478 35.4971 47.6156 34.9389 47.657C34.7384 47.6719 34.5346 47.6586 34.3342 47.6586C34.3342 47.6586 34.3342 47.657 34.3342 47.6553V47.657Z" fill="black"/>
<path d="M38.6033 33.9019C38.6033 34.1239 38.6232 34.3476 38.6 34.5679C38.542 35.0881 38.166 35.4294 37.6773 35.431C37.177 35.4327 36.8075 35.1096 36.7645 34.5729C36.7297 34.1521 36.733 33.7247 36.7562 33.3022C36.7876 32.7456 37.177 32.3662 37.6706 32.3662C38.166 32.3662 38.5553 32.7456 38.6033 33.2956C38.6216 33.4961 38.6067 33.6998 38.6067 33.9003H38.6033V33.9019Z" fill="black"/>
<path d="M10.4337 44.4249C10.4337 44.6667 10.4668 44.9152 10.4271 45.1505C10.3426 45.6558 10.0112 45.9457 9.50596 45.9357C9.004 45.9258 8.66107 45.6375 8.61634 45.1207C8.57658 44.6601 8.58321 44.1913 8.61137 43.7291C8.6445 43.2122 9.03547 42.8792 9.53578 42.8858C10.0311 42.8925 10.3956 43.2371 10.4387 43.7589C10.4569 43.9792 10.442 44.2029 10.442 44.4249C10.4387 44.4249 10.437 44.4249 10.4337 44.4249Z" fill="black"/>
<path d="M31.0889 44.4035C31.0889 44.1616 31.0574 43.9147 31.0955 43.6778C31.1767 43.1726 31.4931 42.886 32.01 42.8909C32.5235 42.8959 32.8565 43.1759 32.9079 43.6894C32.951 44.1301 32.9394 44.5774 32.9195 45.0214C32.8946 45.5698 32.4987 45.9508 31.9984 45.9475C31.4981 45.9442 31.1204 45.5615 31.0856 45.0098C31.0723 44.8093 31.0839 44.6056 31.0839 44.4035C31.0856 44.4035 31.0889 44.4035 31.0905 44.4035H31.0889Z" fill="black"/>
<path d="M4.75968 33.8953C4.75968 34.1372 4.78287 34.3824 4.75471 34.6209C4.69176 35.1394 4.37202 35.4078 3.86011 35.4294C3.3714 35.4492 2.97215 35.0997 2.93073 34.5828C2.89428 34.1421 2.89594 33.6932 2.92907 33.2525C2.96718 32.7373 3.36477 32.3761 3.84023 32.3695C4.33226 32.3612 4.72158 32.7406 4.76962 33.2923C4.78784 33.4927 4.77293 33.6948 4.77293 33.897C4.76962 33.897 4.76465 33.897 4.76134 33.897L4.75968 33.8953Z" fill="black"/>
<path d="M4.76124 38.5903C4.76124 38.8122 4.78112 39.0359 4.75793 39.2562C4.70491 39.7748 4.38352 40.0697 3.88487 40.0945C3.37793 40.1194 3.01347 39.8245 2.9472 39.3291C2.88093 38.8338 2.88259 38.3169 2.94389 37.8199C3.00518 37.3246 3.35308 37.033 3.87161 37.0479C4.38684 37.0628 4.69663 37.3494 4.75627 37.8646C4.78278 38.1032 4.76124 38.3484 4.76124 38.5903Z" fill="black"/>
<path d="M36.7612 38.5388C36.7612 38.3169 36.7413 38.0932 36.7645 37.8745C36.8208 37.3576 37.1256 37.0677 37.6409 37.0479C38.1594 37.028 38.5123 37.3129 38.5769 37.8099C38.6415 38.3053 38.6415 38.8221 38.5769 39.3175C38.5139 39.8128 38.1544 40.1127 37.6475 40.0944C37.1488 40.0762 36.8225 39.783 36.7662 39.2661C36.7396 39.0276 36.7612 38.7824 36.7612 38.5405V38.5388Z" fill="black"/>
<path d="M11.8169 47.6555C11.5949 47.6555 11.3713 47.6754 11.151 47.6522C10.6457 47.5959 10.2878 47.1933 10.321 46.7079C10.3558 46.1993 10.6357 45.8746 11.151 45.8299C11.5717 45.7935 11.9992 45.8017 12.4216 45.8183C13.0246 45.8431 13.3858 46.2176 13.3692 46.7659C13.3543 47.2795 12.9915 47.6274 12.4216 47.6605C12.2212 47.6721 12.0174 47.6622 11.8169 47.6622C11.8169 47.6605 11.8169 47.6572 11.8169 47.6555Z" fill="black"/>
<path d="M29.6526 47.6553C29.4306 47.6553 29.207 47.6752 28.9867 47.652C28.4731 47.5973 28.1335 47.213 28.155 46.7143C28.1782 46.1975 28.4598 45.8761 28.9718 45.833C29.4323 45.7932 29.9011 45.7965 30.3633 45.8313C30.8786 45.8694 31.1619 46.1925 31.2016 46.7011C31.2397 47.1848 30.8819 47.5957 30.3783 47.652C30.1397 47.6785 29.8945 47.657 29.6526 47.657V47.6553Z" fill="black"/>
<path d="M8.608 49.0188C8.608 48.7968 8.58481 48.5715 8.61297 48.3528C8.6809 47.8409 8.994 47.5493 9.50425 47.5394C10.0178 47.5278 10.3641 47.8161 10.422 48.3197C10.4767 48.7985 10.4635 49.2888 10.4287 49.7709C10.3922 50.2779 9.9764 50.6142 9.47775 50.5827C8.96087 50.5495 8.66599 50.2563 8.60966 49.7461C8.58315 49.5075 8.60469 49.2623 8.60469 49.0205C8.60469 49.0205 8.60469 49.0205 8.60635 49.0205L8.608 49.0188Z" fill="black"/>
<path d="M31.0855 49.0354C31.0855 48.8134 31.0657 48.5898 31.0889 48.3694C31.1419 47.8658 31.5428 47.5063 32.0298 47.5378C32.5384 47.5709 32.8631 47.8526 32.9095 48.3661C32.9476 48.7869 32.936 49.2143 32.9195 49.6368C32.8963 50.2365 32.5202 50.6026 31.9735 50.5877C31.4583 50.5745 31.1104 50.21 31.0806 49.6418C31.069 49.4396 31.0789 49.2375 31.0789 49.0354C31.0806 49.0354 31.0822 49.0354 31.0839 49.0354H31.0855Z" fill="black"/>
</g>
<defs>
<clipPath id="clip0_89_2006">
<rect width="41.5274" height="56" fill="white"/>
</clipPath>
</defs>
</svg>
