<svg width="54" height="60" viewBox="0 0 54 60" fill="none" xmlns="http://www.w3.org/2000/svg">
<g clip-path="url(#clip0_553_206)">
<path d="M0 51.4023C0.308451 51.1104 0.616903 50.8185 1.03739 50.4216C1.03739 49.5972 1.03186 48.5792 1.03878 47.5625C1.04431 46.9027 1.4316 46.4408 2.0734 46.4518C5.56734 46.5141 8.73208 45.3674 11.8221 43.8915C13.8153 42.9399 15.9053 42.3327 18.1474 42.3935C20.9871 42.471 23.2846 43.6827 25.1768 45.7381C25.6402 46.2416 26.0551 46.7879 26.5116 47.3371C26.8934 46.8668 27.2461 46.4034 27.6292 45.9663C29.8064 43.4835 32.5133 42.1999 35.8523 42.4074C37.6629 42.5194 39.3642 43.0602 41.0088 43.8002C42.8443 44.626 44.6466 45.5638 46.6412 45.94C47.9552 46.189 49.2969 46.319 50.633 46.4242C51.6289 46.503 51.9761 46.7866 51.9775 47.7714C51.9775 48.7202 51.9775 49.6677 51.9775 50.6069C52.8475 50.9071 53.0121 51.1381 53.0135 52.0427C53.0135 53.4231 53.0149 54.8035 53.0135 56.1853C53.0121 57.0401 52.6442 57.4053 51.7811 57.4053C44.9301 57.4053 38.0806 57.4094 31.2297 57.397C30.8659 57.397 30.6542 57.4828 30.4495 57.8078C28.6002 60.7429 24.3912 60.725 22.5474 57.7746C22.3634 57.48 22.1767 57.3984 21.853 57.3998C15.0201 57.4081 8.18572 57.3998 1.35276 57.4164C0.731707 57.4177 0.278021 57.2476 0 56.6833C0 54.9239 0 53.1631 0 51.4023ZM50.936 52.7467C50.7202 52.7467 50.5514 52.7467 50.3827 52.7467C43.706 52.7467 37.0294 52.7522 30.3527 52.7426C29.1037 52.7412 28.0635 53.0565 27.3567 54.1977C26.9501 54.8533 26.069 54.8588 25.6665 54.206C24.9624 53.0635 23.925 52.7412 22.676 52.7426C15.9994 52.7522 9.3227 52.7467 2.64604 52.7467H2.11213V55.3402C2.35972 55.3402 2.56582 55.3402 2.77191 55.3402C9.43197 55.3402 16.0906 55.3402 22.7507 55.3402C23.5751 55.3402 23.7922 55.4882 24.1048 56.2559C24.517 57.267 25.4604 57.924 26.5019 57.9268C27.5421 57.9295 28.4937 57.2725 28.9073 56.2669C29.2337 55.4744 29.4343 55.3402 30.3057 55.3402C36.9823 55.3402 43.659 55.3402 50.3357 55.3402C50.5334 55.3402 50.7312 55.3402 50.9346 55.3402V52.7467H50.936ZM3.12463 50.6788C3.38052 50.6788 3.58661 50.6788 3.79132 50.6788C9.70722 50.6788 15.6231 50.6788 21.5376 50.6788C22.8586 50.6788 24.1948 50.5544 25.4438 51.1934C25.5586 49.73 25.5434 49.6511 24.7591 48.5487C24.47 48.1421 24.1685 47.7396 23.8379 47.3661C21.983 45.2706 19.7063 44.2221 16.8638 44.5403C15.3368 44.7118 13.9384 45.2623 12.5331 45.8391C10.7543 46.5694 8.97552 47.3218 7.14279 47.8876C5.86057 48.2832 4.48707 48.3814 3.12463 48.6165V50.6775V50.6788ZM49.8903 48.5142C47.4406 48.3993 45.1362 47.8668 42.9287 46.9359C41.7087 46.4214 40.515 45.8418 39.2853 45.3508C37.3489 44.5776 35.3557 44.1834 33.2782 44.7214C31.0706 45.2927 29.5505 46.7589 28.2378 48.5391C27.643 49.3455 27.4038 50.1684 27.5905 51.1823C28.9432 50.5018 30.4053 50.6858 31.8424 50.683C37.6546 50.6733 43.4667 50.6788 49.2789 50.6788H49.8903V48.5142Z" fill="black"/>
<path d="M27.7507 6.97131C28.3497 7.10825 28.9555 7.22029 29.5461 7.38489C34.8202 8.84554 38.3349 13.8665 37.8743 19.3052C37.6876 21.5211 36.9033 23.5184 35.5602 25.2986C34.906 26.1658 34.2863 27.058 33.639 27.9308C32.9654 28.8395 32.6915 29.852 32.7095 30.9821C32.7399 32.9144 32.7081 34.8481 32.7261 36.7804C32.7302 37.2493 32.5822 37.609 32.2503 37.9285C31.6541 38.5039 31.105 39.1305 30.477 39.6672C30.2031 39.9023 29.7868 40.0835 29.4313 40.0918C27.4824 40.1319 25.5321 40.1319 23.5832 40.0918C23.2277 40.0849 22.8128 39.9009 22.5389 39.6658C21.8999 39.1153 21.2982 38.5136 20.7477 37.8745C20.5125 37.6007 20.3244 37.1871 20.3175 36.8316C20.276 34.8647 20.2788 32.8964 20.305 30.9295C20.3203 29.8368 20.0491 28.8548 19.4046 27.9723C18.7642 27.0953 18.1403 26.2046 17.4875 25.3373C12.4278 18.6233 15.8332 9.17888 24.0189 7.24104C24.4325 7.14283 24.8502 7.06122 25.2652 6.97131C26.0937 6.97131 26.9222 6.97131 27.7507 6.97131ZM30.5614 29.7358C30.8519 28.9958 31.0331 28.2392 31.4204 27.6085C32.1396 26.4356 32.9446 25.3096 33.7732 24.21C35.4122 22.0356 36.1232 19.6206 35.7069 16.9247C34.7677 10.847 28.2238 7.33233 22.6482 9.88846C17.1597 12.4045 15.5137 19.2125 19.1847 24.1298C20.4766 25.8602 21.9898 27.4743 22.3522 29.7151H25.4754C25.4754 27.4992 25.4782 25.3249 25.4754 23.1505C25.4754 22.3925 25.658 21.5543 25.3924 20.9C25.1338 20.2652 24.409 19.8198 23.8875 19.2914C23.8751 19.2789 23.8626 19.2665 23.8515 19.254C23.3066 18.6938 23.254 18.0659 23.7146 17.6177C24.1711 17.1737 24.7921 17.236 25.3509 17.7948C25.7258 18.1696 26.0895 18.5569 26.5308 19.0134C26.9706 18.5445 27.3469 18.1198 27.748 17.7215C28.2515 17.2221 28.8725 17.1931 29.3082 17.6205C29.7453 18.0493 29.7246 18.6759 29.2377 19.1835C28.7951 19.6441 28.3469 20.1006 27.8808 20.5349C27.6359 20.7631 27.535 21.001 27.5364 21.3427C27.5502 23.9666 27.5433 26.5891 27.5447 29.213C27.5447 29.3804 27.5585 29.5477 27.5682 29.7345H30.5642L30.5614 29.7358ZM30.6084 33.8813V31.8535H22.3964V33.8813H30.6084ZM30.8076 35.9962H22.2125C22.4047 36.3544 22.5126 36.6435 22.6966 36.8731C22.9428 37.1802 23.225 37.4706 23.5362 37.7099C23.7464 37.8718 24.03 38.0212 24.2845 38.0295C25.3689 38.064 26.4616 37.9644 27.5377 38.0654C28.7217 38.1775 29.6513 37.8732 30.3235 36.8828C30.4908 36.6366 30.6126 36.3599 30.809 35.9962H30.8076Z" fill="black"/>
<path d="M14.547 10.6741C14.5318 11.6175 13.7627 12.1306 13.0781 11.7931C12.4017 11.4598 11.7502 11.0684 11.1167 10.6575C10.6381 10.3477 10.5385 9.75709 10.8165 9.28957C11.0918 8.82759 11.6617 8.63118 12.161 8.88983C12.8166 9.22871 13.4681 9.58558 14.074 10.0047C14.3257 10.179 14.4529 10.5331 14.547 10.6728V10.6741Z" fill="black"/>
<path d="M11.7449 27.9612C11.2704 27.9211 10.9122 27.7247 10.742 27.2668C10.5705 26.8076 10.6715 26.3761 11.0629 26.1174C11.7352 25.6748 12.4378 25.2709 13.1571 24.9085C13.5928 24.6886 14.1143 24.903 14.3729 25.3041C14.633 25.7066 14.633 26.3138 14.2443 26.5752C13.5084 27.0718 12.7103 27.4757 11.9357 27.9142C11.879 27.946 11.8029 27.9474 11.7435 27.9598L11.7449 27.9612Z" fill="black"/>
<path d="M42.3395 26.6998C42.3589 27.6556 41.5705 28.1909 40.865 27.841C40.1887 27.5062 39.5386 27.1148 38.9037 26.704C38.4362 26.4011 38.3449 25.7994 38.627 25.3319C38.8968 24.8865 39.4445 24.6845 39.9272 24.9321C40.5995 25.2752 41.262 25.6472 41.8858 26.0705C42.1265 26.2337 42.2496 26.5712 42.3395 26.7012V26.6998Z" fill="black"/>
<path d="M39.5481 11.9079C39.0875 11.8719 38.7293 11.6907 38.5591 11.2606C38.3849 10.8193 38.4319 10.3601 38.8275 10.0945C39.5094 9.63532 40.23 9.22589 40.9631 8.85382C41.3961 8.63389 41.9148 8.85105 42.1776 9.25632C42.4445 9.66575 42.4431 10.2467 42.0406 10.5206C41.3062 11.0185 40.5081 11.4224 39.7349 11.8609C39.6781 11.8927 39.6021 11.8941 39.5495 11.9065L39.5481 11.9079Z" fill="black"/>
<path d="M10.4281 19.3952C10.0671 19.3952 9.70469 19.4118 9.34506 19.3911C8.79317 19.3593 8.39342 18.9208 8.39066 18.3717C8.38651 17.8212 8.77933 17.3578 9.32846 17.3384C10.0837 17.3122 10.8417 17.3122 11.5969 17.3384C12.1419 17.3578 12.5347 17.8295 12.5264 18.3786C12.5181 18.9263 12.117 19.3607 11.5623 19.3897C11.1847 19.4091 10.8057 19.3939 10.4281 19.3939V19.3952Z" fill="black"/>
<path d="M34.2064 6.15662C33.263 6.14141 32.7499 5.37235 33.0874 4.68767C33.4207 4.01129 33.8122 3.35981 34.223 2.72631C34.5328 2.24773 35.1234 2.14814 35.5909 2.42616C36.0529 2.70141 36.2493 3.27129 35.9907 3.77062C35.6518 4.42625 35.2949 5.07773 34.8758 5.68357C34.7016 5.93531 34.3475 6.06256 34.2078 6.15662H34.2064Z" fill="black"/>
<path d="M16.9204 3.35435C16.9605 2.87991 17.1569 2.52167 17.6148 2.35154C18.074 2.18002 18.5055 2.28099 18.7642 2.67244C19.2068 3.34467 19.6107 4.04733 19.9731 4.76658C20.193 5.20229 19.9786 5.72375 19.5775 5.98241C19.175 6.24245 18.5678 6.24245 18.3064 5.85377C17.8098 5.11791 17.4059 4.31981 16.9674 3.54523C16.9356 3.48852 16.9342 3.41244 16.9218 3.35296L16.9204 3.35435Z" fill="black"/>
<path d="M25.4853 2.03759C25.4853 1.67658 25.4687 1.31418 25.4894 0.954556C25.5213 0.402663 25.9597 0.00430421 26.5088 0.000154636C27.0594 -0.00399493 27.5227 0.388831 27.5421 0.937957C27.5684 1.69318 27.5684 2.45117 27.5421 3.20639C27.5227 3.75136 27.0511 4.14419 26.5019 4.13589C25.9542 4.12759 25.5199 3.72647 25.4908 3.17181C25.4715 2.7942 25.4867 2.4152 25.4867 2.03759H25.4853Z" fill="black"/>
<path d="M42.5872 17.3328C42.9483 17.3328 43.3106 17.3162 43.6703 17.337C44.2222 17.3688 44.6219 17.8073 44.6261 18.355C44.6302 18.9041 44.236 19.3689 43.6883 19.3882C42.933 19.4145 42.1751 19.4159 41.4198 19.3882C40.8735 19.3675 40.4834 18.8972 40.4903 18.3481C40.4972 17.8003 40.8984 17.366 41.453 17.337C41.8306 17.3176 42.2096 17.3328 42.5872 17.3328Z" fill="black"/>
</g>
<defs>
<clipPath id="clip0_553_206">
<rect width="53.0149" height="60" fill="white"/>
</clipPath>
</defs>
</svg>
