<svg width="56" height="56" viewBox="0 0 56 56" fill="none" xmlns="http://www.w3.org/2000/svg">
<g clip-path="url(#clip0_89_2034)">
<path d="M5.59368 37.4513C4.87954 38.1148 4.13476 38.6756 3.54782 39.375C1.85903 41.3891 1.54333 43.7879 2.00002 46.2895C2.3249 48.0731 4.00297 49.408 5.80516 49.4392C8.06098 49.4781 10.3183 49.489 12.5726 49.4267C13.2714 49.408 13.9641 49.1089 14.6982 48.9282C14.6982 49.9205 14.6828 50.9813 14.7043 52.042C14.715 52.5249 14.7426 53.0202 14.8591 53.4844C15.3173 55.3038 16.9678 56.3272 18.9692 55.9097C20.7423 55.5406 22.4832 55.0063 24.2363 54.539C25.4914 54.2041 26.7404 53.8427 28.0001 53.5281C28.2974 53.4533 28.6468 53.4486 28.941 53.5281C31.7286 54.2679 34.5055 55.053 37.2977 55.7789C37.8969 55.9347 38.5512 56.0032 39.1658 55.9471C41.0032 55.7805 42.1694 54.4408 42.2215 52.4969C42.2537 51.2928 42.2277 50.0887 42.2277 48.9049C45.2007 49.9485 48.2488 49.3504 51.2494 49.4142C53.07 49.4532 54.6791 47.9531 54.9672 46.1151C55.3656 43.5776 54.9963 41.1788 53.2355 39.1928C52.6807 38.5666 51.9896 38.065 51.3199 37.47C52.1888 36.3095 52.5581 34.9481 52.2026 33.4356C51.9543 32.3795 51.4011 31.5119 50.5536 30.8452C48.7943 29.462 46.3255 29.5445 44.6965 31.0352C42.8759 32.7019 42.6859 35.0525 44.1816 37.526C43.731 37.875 43.2544 38.199 42.833 38.5837C42.4253 38.9544 42.0744 39.389 41.7342 39.7566C41.2775 38.7753 40.804 37.7846 40.3611 36.7784C40.3029 36.6475 40.358 36.403 40.4484 36.2752C41.066 35.4107 41.1488 34.5213 40.7442 33.5291C40.1956 32.1848 41.043 30.0959 42.364 29.5383C43.351 29.1224 43.9287 28.4214 43.9823 27.3498C44.0283 26.4619 44.0191 25.5662 43.9456 24.6799C43.8735 23.8045 43.3816 23.1923 42.5786 22.8154C40.9204 22.0381 40.1971 20.2094 40.8362 18.4585C41.1227 17.6719 41.1166 16.8853 40.5894 16.2482C39.9182 15.4366 39.1796 14.6703 38.3934 13.9755C37.7406 13.3992 36.9345 13.3805 36.1177 13.6811C34.5039 14.2762 32.6374 13.4833 31.9784 11.9023C31.6045 11.0066 30.9455 10.4739 30.0306 10.3976C29.0085 10.3119 27.971 10.315 26.9488 10.3898C25.9818 10.4599 25.306 11.0206 24.9213 11.9584C24.3191 13.4335 22.3682 14.2949 20.9108 13.7201C19.9362 13.3353 19.055 13.4568 18.2903 14.1391C17.662 14.6999 17.0689 15.3136 16.5233 15.9585C15.8567 16.7467 15.7525 17.6392 16.1525 18.6252C16.744 20.0801 15.9165 22.1253 14.4959 22.7406C13.5565 23.1487 13.0048 23.8325 12.9527 24.8575C12.9067 25.764 12.9067 26.68 12.9802 27.5834C13.0523 28.4588 13.5565 29.0648 14.3579 29.4402C15.99 30.2019 16.7333 32.0524 16.0988 33.7518C15.7709 34.6303 15.8812 35.4403 16.4329 36.1709C16.6582 36.4699 16.626 36.6787 16.4697 36.9964C16.0192 37.9123 15.6192 38.8532 15.2039 39.7722C14.8514 39.389 14.4989 38.9529 14.0913 38.5806C13.6821 38.2067 13.2178 37.8952 12.7289 37.5183C13.6591 36.2628 14.0239 34.8484 13.6009 33.2814C13.3067 32.191 12.6906 31.3234 11.7772 30.6785C9.99191 29.4183 7.54607 29.6395 5.97987 31.1847C4.64814 32.4979 3.8298 35.0462 5.58908 37.4528L5.59368 37.4513ZM24.7436 52.3707C24.742 52.405 24.739 52.4392 24.7374 52.4735C22.7452 53.0078 20.7653 53.5919 18.7592 54.0608C17.3218 54.3972 16.5402 53.6994 16.5371 52.218C16.5295 49.341 16.5126 46.464 16.5417 43.5885C16.5908 38.7582 19.6358 34.311 24.0632 32.582C24.2869 32.4948 24.6286 32.5181 24.8417 32.6318C27.263 33.9154 29.6674 33.9138 32.0888 32.6318C32.3033 32.5181 32.6496 32.4854 32.8673 32.5773C36.6019 34.1661 39.0033 36.9544 40.05 40.9358C40.476 42.5542 40.3963 44.2116 40.3963 45.8612C40.3963 48.0186 40.4071 50.1759 40.3902 52.3333C40.3795 53.6059 39.7481 54.201 38.5083 54.0982C37.9995 54.0561 37.4969 53.9066 37.0004 53.771C31.9861 52.4065 26.9703 51.0436 21.9636 49.6479C21.4901 49.5155 21.0028 49.2382 20.6534 48.8924C20.0787 48.3239 20.0603 47.3799 20.4756 46.6743C20.8955 45.9624 21.7261 45.5823 22.5491 45.7942C25.9726 46.6727 29.3916 47.5699 32.8121 48.4609C34.0319 48.7787 35.2503 49.1089 36.4732 49.4142C37.0203 49.5513 37.4478 49.2927 37.6026 48.788C37.7497 48.3067 37.5505 47.8893 37.0601 47.6556C36.959 47.6073 36.8548 47.5684 36.7245 47.5139C36.7245 46.3659 36.7276 45.221 36.7245 44.0761C36.7215 43.3299 36.3889 42.9249 35.8004 42.9296C35.2135 42.9343 34.8947 43.3377 34.8917 44.0901C34.8871 45.0574 34.8917 46.0263 34.8917 47.0653C30.5777 45.9468 26.3312 44.844 22.0449 43.7334C21.9376 43.2474 21.6158 42.9063 21.0196 42.9468C20.4879 42.9826 20.2733 43.3377 20.1906 44.0776C20.1676 44.2832 19.9944 44.5107 19.8289 44.654C18.7163 45.6073 18.1968 46.8129 18.4267 48.2709C18.6627 49.7756 19.5393 50.7943 20.9583 51.3084C21.2449 51.4127 21.5453 51.4797 21.8395 51.5623C22.808 51.8317 23.7766 52.1012 24.7451 52.3707H24.7436ZM34.0319 31.0414C36.7506 27.5538 36.0962 23.3621 33.681 20.8792C31.2352 18.3651 27.3519 17.9289 24.4739 19.8682C23.0042 20.8574 21.9713 22.2001 21.4595 23.9213C20.684 26.5304 21.2556 28.8887 22.9015 31.043C20.8894 31.948 19.2604 33.258 17.806 34.8406C17.803 34.6007 17.8367 34.3951 17.9118 34.2066C18.2152 33.4481 18.3286 32.6677 18.134 31.867C17.7601 30.3311 17.2697 28.7781 15.754 28.0772C14.8085 27.6395 14.6507 27.032 14.6951 26.1675C14.7074 25.9151 14.7012 25.6628 14.7135 25.4104C14.7365 24.912 14.8989 24.5537 15.4292 24.3652C17.4612 23.6472 18.7362 19.9819 18.0528 18.5208C17.6037 17.5598 17.9332 16.946 18.5999 16.3479C18.8864 16.0909 19.1393 15.7793 19.4626 15.5877C19.6741 15.4616 20.0143 15.4071 20.2427 15.4865C22.7345 16.3401 25.5022 15.1407 26.6301 12.7154C26.7251 12.5098 26.9917 12.2746 27.1971 12.2543C27.9342 12.1811 28.6805 12.1858 29.4222 12.178C29.9387 12.1733 30.2176 12.4397 30.426 12.9428C31.2229 14.8697 34.1576 16.3245 36.0962 15.6282C37.077 15.2762 37.6471 15.5691 38.2263 16.242C38.4532 16.5052 38.683 16.7653 38.9098 17.027C39.1627 17.3183 39.2071 17.6158 39.0401 17.9881C38.6999 18.7498 38.5926 19.5567 38.7934 20.3776C39.1704 21.9135 39.6607 23.4696 41.1779 24.1659C42.1342 24.6051 42.2675 25.2204 42.2338 26.0771C42.2215 26.3871 42.22 26.6986 42.1985 27.0086C42.171 27.4043 42.0192 27.6971 41.6009 27.8264C39.578 28.4479 38.0501 32.2814 39.0064 34.1786C39.1014 34.3655 39.1183 34.5929 39.1719 34.8017C37.6655 33.2378 36.0211 31.9418 34.0304 31.0414H34.0319ZM22.9582 26.1363C22.9536 23.0537 25.4255 20.5318 28.4552 20.5271C31.4896 20.5225 33.966 23.0319 33.9722 26.1145C33.9768 29.2003 31.5095 31.7175 28.4767 31.7237C25.4439 31.7284 22.9644 29.2174 22.9598 26.1363H22.9582ZM47.7921 47.5871C46.7224 47.5871 45.6528 47.598 44.5831 47.584C43.213 47.5653 42.2598 46.5839 42.2369 45.1836C42.2292 44.7365 42.2108 44.2879 42.246 43.844C42.4299 41.5822 43.5241 39.9451 45.5577 38.9903C45.7708 38.8906 46.0788 38.8921 46.3102 38.9607C47.2557 39.2379 48.1829 39.2457 49.133 38.9762C49.3966 38.9015 49.7414 38.9155 49.9897 39.0261C51.4042 39.6601 52.4524 40.7162 52.8815 42.2209C53.1527 43.1695 53.2033 44.2007 53.2309 45.1992C53.2692 46.5917 52.2623 47.5684 50.8862 47.5855C49.8548 47.598 48.8235 47.5886 47.7921 47.5871ZM9.19041 47.5871C8.12074 47.5871 7.05107 47.6026 5.9814 47.584C4.67726 47.5606 3.72252 46.5777 3.68881 45.2474C3.67655 44.7817 3.65969 44.3128 3.698 43.8502C3.87883 41.5869 4.97456 39.9513 7.0051 38.9949C7.21812 38.8952 7.52614 38.8968 7.75602 38.9653C8.72148 39.2551 9.66855 39.2488 10.634 38.9638C10.8654 38.8952 11.1689 38.8999 11.3865 38.9965C12.8209 39.6351 13.889 40.6912 14.3319 42.2178C14.6016 43.1477 14.6552 44.1586 14.6844 45.1368C14.7273 46.6011 13.7296 47.5762 12.286 47.5886C11.2547 47.598 10.2233 47.5902 9.19195 47.5886L9.19041 47.5871ZM44.9938 34.5493C44.9815 33.0197 46.1968 31.7502 47.691 31.7268C49.2234 31.7035 50.4847 32.9496 50.4954 34.4979C50.5061 36.0525 49.2694 37.322 47.7415 37.3204C46.2382 37.3204 45.0045 36.0743 44.9923 34.5493H44.9938ZM6.43961 34.5088C6.44728 32.9605 7.70391 31.7097 9.23486 31.7284C10.7321 31.7455 11.9489 33.0103 11.9428 34.54C11.9366 36.0665 10.706 37.3173 9.20574 37.322C7.67786 37.3267 6.43348 36.0618 6.44114 34.5088H6.43961Z" fill="black"/>
<path d="M32.1377 3.69655C32.1239 1.64042 30.455 -0.0200665 28.4199 0.000183262C26.4185 0.020433 24.7925 1.69338 24.7956 3.73237C24.7971 5.79162 26.4583 7.46924 28.4843 7.46145C30.5087 7.45366 32.15 5.76202 32.1362 3.69655H32.1377ZM28.4459 5.59535C27.4452 5.58289 26.63 4.74019 26.6315 3.72303C26.6346 2.68717 27.4943 1.8398 28.518 1.86628C29.5156 1.89276 30.3202 2.74948 30.3018 3.76664C30.2834 4.78225 29.4467 5.60626 28.4459 5.59535Z" fill="black"/>
<path d="M4.5761 18.6577C6.60357 18.6702 8.26631 16.9957 8.27244 14.938C8.27857 12.8959 6.65874 11.2214 4.65732 11.198C2.61759 11.1746 0.948714 12.8258 0.931857 14.8835C0.914999 16.9474 2.55322 18.6452 4.5761 18.6577ZM2.76777 14.938C2.76011 13.9239 3.57692 13.0766 4.5761 13.0625C5.57987 13.0501 6.41661 13.8694 6.43653 14.8819C6.45645 15.924 5.62278 16.7901 4.60215 16.7901C3.6045 16.7901 2.77696 15.952 2.7693 14.938H2.76777Z" fill="black"/>
<path d="M52.3098 11.1968C50.2808 11.2046 48.6441 12.8931 48.6594 14.9601C48.6747 17.0147 50.3497 18.6799 52.3787 18.6565C54.3756 18.6363 56.0015 16.9571 56 14.9181C55.9985 12.8542 54.3465 11.189 52.3098 11.1968ZM52.3389 13.0629C53.3411 13.0676 54.1626 13.9009 54.1641 14.9181C54.1672 15.9353 53.3503 16.7795 52.3512 16.7904C51.329 16.8013 50.4846 15.943 50.4953 14.9025C50.5061 13.89 51.3382 13.0582 52.3374 13.0629H52.3389Z" fill="black"/>
<path d="M46.7284 13.2651C46.9644 12.9769 47.2786 12.723 47.4196 12.3912C47.6004 11.9628 47.3751 11.589 46.966 11.3896C46.0373 10.9379 45.1009 10.5017 44.1646 10.064C41.1333 8.64344 38.1021 7.22284 35.0708 5.80224C34.9498 5.74616 34.8318 5.68074 34.7076 5.62934C34.1544 5.40348 33.6518 5.56236 33.4341 6.0281C33.2027 6.52344 33.3958 7.06707 33.946 7.32565C37.9963 9.23224 42.0498 11.1295 46.1047 13.0267C46.2579 13.0984 46.4311 13.128 46.5936 13.1763L46.7299 13.2635L46.7284 13.2651Z" fill="black"/>
<path d="M22.8125 5.42392C22.4631 5.55632 22.2624 5.61707 22.0739 5.70586C18.1063 7.56417 14.1402 9.42247 10.1757 11.2855C9.5351 11.5861 9.33894 11.9739 9.52744 12.5113C9.73739 13.1079 10.2554 13.2902 10.9343 12.9755C12.9816 12.0238 15.0244 11.0643 17.0672 10.1047C19.0074 9.19505 20.946 8.28537 22.8845 7.37102C23.496 7.08285 23.7642 6.63579 23.5221 6.14668C23.3719 5.84449 23.0332 5.63732 22.8141 5.42236L22.8125 5.42392Z" fill="black"/>
<path d="M6.28329 20.1826C5.61666 20.1795 5.16151 20.7138 5.31629 21.3306C5.8404 23.4351 6.38903 25.5348 6.95299 27.6299C7.10164 28.1813 7.55985 28.404 8.0671 28.2545C8.58508 28.1019 8.84866 27.6906 8.70768 27.1314C8.18204 25.0472 7.638 22.9662 7.08784 20.8883C6.97291 20.4537 6.66488 20.2091 6.28482 20.1826H6.28329Z" fill="black"/>
<path d="M48.1921 27.3526C48.1998 27.8916 48.4894 28.1922 48.9783 28.2795C49.4871 28.3698 49.8426 28.1237 49.9836 27.6315C50.2227 26.7934 50.4249 25.9445 50.6441 25.1018C50.9613 23.8837 51.2893 22.6671 51.5973 21.4475C51.749 20.8431 51.4778 20.3447 50.9552 20.2076C50.4648 20.0783 49.9851 20.3696 49.8319 20.9428C49.2909 22.9834 48.7668 25.0286 48.2366 27.0723C48.212 27.1657 48.2059 27.2638 48.1921 27.3526Z" fill="black"/>
<path d="M23.4746 40.1195C23.9129 40.1195 24.3511 40.1382 24.7894 40.1148C25.3365 40.0868 25.6936 39.7036 25.6936 39.188C25.6936 38.6709 25.3365 38.2768 24.791 38.2643C23.8776 38.2425 22.9612 38.2441 22.0478 38.2643C21.5007 38.2768 21.1452 38.6693 21.1437 39.1865C21.1437 39.702 21.4992 40.0868 22.0463 40.1148C22.5214 40.1382 22.998 40.1195 23.4746 40.1195Z" fill="black"/>
</g>
<defs>
<clipPath id="clip0_89_2034">
<rect width="55.0667" height="56" fill="white" transform="matrix(-1 0 0 1 56 0)"/>
</clipPath>
</defs>
</svg>
