<svg width="57" height="39" viewBox="0 0 57 39" fill="none" xmlns="http://www.w3.org/2000/svg">
<g clip-path="url(#clip0_553_111)">
<path d="M34.1514 11.155V15.4628C35.1371 15.4628 36.063 15.4464 36.9875 15.4673C37.8419 15.4866 38.3594 16.2799 38.0194 17.0225C37.7897 17.525 37.3543 17.692 36.8325 17.692C35.8841 17.692 34.9343 17.6786 33.9859 17.7054C33.8115 17.7099 33.549 17.8456 33.4819 17.9902C32.1325 20.968 29.6721 22.301 26.5691 22.6172C25.494 22.726 24.398 22.6351 23.311 22.6351C23.3021 22.6843 23.2931 22.735 23.2842 22.7842C23.405 22.9154 23.5228 23.0511 23.648 23.1793C25.8399 25.4324 28.0334 27.6855 30.2253 29.9371C30.355 30.0698 30.4878 30.201 30.61 30.3411C31.0887 30.8824 31.0946 31.549 30.6309 31.9858C30.1612 32.4287 29.5066 32.3989 28.9907 31.8725C27.5309 30.3859 26.0845 28.8873 24.6321 27.3932C22.895 25.6054 21.1563 23.8205 19.4237 22.0282C18.9927 21.5823 18.9048 21.0157 19.1821 20.5505C19.4774 20.0539 19.9232 19.9168 20.4749 20.0316C20.8566 20.1106 21.2413 20.1762 21.6275 20.2344C23.7926 20.555 25.9563 20.7294 28.09 20.048C29.3306 19.6513 30.3506 18.952 31.0961 17.7233C30.8337 17.7114 30.6443 17.6935 30.4564 17.6935C27.3117 17.692 24.1684 17.6935 21.0236 17.689C20.7672 17.689 20.4973 17.6726 20.2542 17.5966C19.7517 17.44 19.4654 16.939 19.5325 16.4141C19.5952 15.9191 19.9814 15.5329 20.4898 15.4762C20.6926 15.4538 20.8984 15.4613 21.1027 15.4613C24.4696 15.4613 27.8366 15.4613 31.205 15.4613C31.4242 15.4613 31.6419 15.4613 31.867 15.4613C32.1444 14.0835 32.0012 12.7773 31.794 11.4711C31.7313 11.0789 31.4465 11.1564 31.1975 11.1564C27.8306 11.155 24.4636 11.1564 21.0952 11.155C20.8909 11.155 20.6837 11.1624 20.4824 11.1386C19.953 11.0774 19.5653 10.6629 19.5266 10.138C19.4878 9.60867 19.8009 9.13449 20.3124 8.9988C20.542 8.93767 20.7895 8.92425 21.0296 8.92425C26.2202 8.91977 31.4108 8.92126 36.6013 8.92276C36.7683 8.92276 36.9383 8.92127 37.1023 8.94512C37.751 9.04205 38.1536 9.52218 38.1074 10.1335C38.0626 10.7255 37.6332 11.1326 36.989 11.1475C36.2077 11.1654 35.4263 11.1535 34.645 11.1535C34.4631 11.1535 34.2797 11.1535 34.1484 11.1535L34.1514 11.155Z" fill="black"/>
<path d="M12.3127 9.64444C9.61379 11.1758 6.89698 10.2185 5.54752 8.33971C4.13543 6.37293 4.36357 3.6263 6.09476 1.9145C7.82744 0.201204 10.583 -0.00755191 12.5274 1.42094C14.4883 2.86135 15.2577 5.60948 13.8262 8.10263C14.5852 8.85862 15.3591 9.62804 16.1315 10.3989C16.3417 10.6092 16.5564 10.815 16.7622 11.0297C17.293 11.5874 17.3348 12.2449 16.8725 12.7102C16.4133 13.1754 15.7333 13.1471 15.1921 12.6162C14.3436 11.7827 13.5056 10.9387 12.6691 10.0933C12.5394 9.96205 12.438 9.8025 12.3157 9.64444H12.3127ZM12.3455 5.43651C12.3381 3.91259 11.087 2.68689 9.56011 2.70926C8.05259 2.73014 6.84032 3.95882 6.85075 5.4559C6.86119 6.95298 8.0854 8.18315 9.5795 8.19657C11.087 8.20999 12.353 6.94701 12.347 5.43651H12.3455Z" fill="black"/>
<path d="M43.3307 30.8795C42.36 29.9192 41.4012 28.9872 40.4678 28.0314C40.2561 27.8152 40.0562 27.5304 39.9891 27.2441C39.8714 26.7431 40.0995 26.3286 40.5632 26.09C41.0508 25.8395 41.5071 25.9394 41.8903 26.3167C42.7119 27.1248 43.5261 27.9405 44.3358 28.7591C44.5177 28.944 44.6698 29.1572 44.8397 29.3615C46.219 28.5623 47.5983 28.3595 49.0402 28.8038C50.1809 29.1557 51.0831 29.8506 51.7332 30.8541C53.0364 32.8686 52.7128 35.5273 50.9682 37.1705C49.2072 38.8301 46.5098 38.9822 44.5713 37.5358C42.7403 36.1699 41.8605 33.4919 43.3322 30.8795H43.3307ZM47.5566 36.2907C49.0656 36.2892 50.2823 35.0859 50.3002 33.5769C50.3181 32.0664 49.0641 30.8004 47.5506 30.8019C46.0401 30.8019 44.7816 32.0783 44.8055 33.5829C44.8293 35.0904 46.0505 36.2922 47.5566 36.2907Z" fill="black"/>
<path d="M44.8892 9.68469C43.9424 10.6345 42.994 11.6038 42.0203 12.5447C41.8041 12.7534 41.5133 12.9398 41.2255 13.0084C40.7469 13.1217 40.3428 12.9025 40.1042 12.4701C39.8403 11.9929 39.9134 11.5277 40.2921 11.14C41.1495 10.2632 42.0218 9.40138 42.8881 8.53206C43.0313 8.38891 43.1685 8.2398 43.3012 8.10113C41.6833 5.04434 43.076 2.45278 44.7774 1.31357C46.7576 -0.012036 49.4476 0.257856 51.1087 1.96817C52.7832 3.6919 52.989 6.35205 51.6216 8.31287C50.4332 10.0172 47.7909 11.2772 44.8877 9.68618L44.8892 9.68469ZM47.5255 2.70776C46.0195 2.72416 44.8042 3.94688 44.8057 5.44545C44.8072 6.95893 46.0776 8.21743 47.5807 8.19656C49.0793 8.17419 50.296 6.94402 50.2975 5.44545C50.299 3.92004 49.0554 2.69136 47.5255 2.70776Z" fill="black"/>
<path d="M13.8172 30.8468C15.4261 33.8574 14.1527 36.4743 12.4051 37.6642C10.4264 39.0121 7.72895 38.7482 6.06039 37.0513C4.35754 35.3201 4.14729 32.6123 5.54745 30.6574C6.8641 28.8189 9.56004 27.8004 12.2605 29.3214C13.1924 28.385 14.1303 27.4306 15.0846 26.4942C15.2904 26.2914 15.5424 26.0857 15.8108 26.0066C16.2999 25.862 16.7308 26.0379 17.0171 26.4793C17.3034 26.9177 17.2617 27.4381 16.8561 27.8586C16.0166 28.7294 15.1547 29.5764 14.2973 30.4308C14.1527 30.5754 13.9887 30.6992 13.8172 30.8483V30.8468ZM9.5675 36.2894C11.0944 36.3058 12.344 35.0741 12.3425 33.5517C12.341 32.0561 11.1212 30.8214 9.62416 30.8021C8.11664 30.7812 6.85217 32.0352 6.85068 33.5517C6.85068 35.0547 8.05849 36.2745 9.5675 36.2909V36.2894Z" fill="black"/>
<path d="M12.3084 20.6162C11.7134 20.6162 11.117 20.643 10.5235 20.6072C10.1373 20.5834 9.99269 20.7191 9.86744 21.0829C8.75059 24.3291 4.89009 25.513 2.16731 23.4642C0.476388 22.1908 -0.221454 19.9944 0.42569 17.9874C1.08625 15.9356 2.95462 14.5578 5.12718 14.519C7.17597 14.4832 9.11741 15.7999 9.80481 17.7682C9.97629 18.2602 10.1865 18.4153 10.6965 18.3959C11.8476 18.3542 13.0018 18.378 14.1544 18.384C14.9417 18.3885 15.4189 18.803 15.4308 19.474C15.4442 20.1733 14.9596 20.6072 14.1469 20.6132C13.5341 20.6192 12.9198 20.6132 12.3069 20.6132L12.3084 20.6162ZM2.42975 19.5217C2.4387 21.0322 3.66887 22.2564 5.17191 22.249C6.66899 22.2415 7.90811 21.0009 7.91258 19.5053C7.91706 17.9874 6.63917 16.7259 5.12867 16.7527C3.61221 16.7796 2.42229 18.0008 2.42975 19.5217Z" fill="black"/>
<path d="M44.7921 18.3825C45.4064 18.3825 46.0208 18.3542 46.6321 18.393C47.0243 18.4168 47.1555 18.2677 47.2852 17.9114C47.9727 16.0236 49.3117 14.8561 51.3142 14.5877C53.3854 14.3103 55.0584 15.0887 56.1768 16.8482C57.2698 18.5674 57.2742 20.3836 56.1991 22.1148C55.1509 23.8042 53.5629 24.608 51.5752 24.438C49.5175 24.262 48.086 23.1437 47.3464 21.2231C47.1585 20.737 46.9542 20.5849 46.4487 20.6028C45.2976 20.6431 44.1435 20.6207 42.9908 20.6133C42.2065 20.6088 41.7294 20.1898 41.7189 19.5173C41.7085 18.8179 42.1916 18.39 43.0072 18.3825C43.6022 18.3781 44.1972 18.3825 44.7921 18.3825ZM54.7214 19.5068C54.7244 17.9889 53.5226 16.7677 52.0091 16.7513C50.4956 16.7349 49.2282 18.0023 49.2386 19.5188C49.2491 21.0129 50.4986 22.252 51.9927 22.2475C53.5017 22.2445 54.7185 21.0218 54.7214 19.5068Z" fill="black"/>
</g>
<defs>
<clipPath id="clip0_553_111">
<rect width="56.813" height="38.0518" fill="white" transform="translate(0.187012 0.474121)"/>
</clipPath>
</defs>
</svg>
