<svg width="49" height="56" viewBox="0 0 49 56" fill="none" xmlns="http://www.w3.org/2000/svg">
<g clip-path="url(#clip0_89_2052)">
<path d="M13.016 55.6031C13.016 48.2748 13.016 40.9465 13.016 33.6182C13.016 33.4922 13.0218 33.3648 13.016 33.2388C12.9943 32.8117 13.0942 32.4468 13.5112 32.2397C13.9355 32.0297 14.27 32.202 14.5958 32.4743C15.883 33.5545 17.1747 34.6289 18.4648 35.7062C18.6864 35.8915 18.9093 36.074 19.1627 36.2854C20.3559 35.5397 21.5461 34.7954 22.7364 34.0497C23.165 33.7818 23.6008 33.5241 24.0164 33.2359C24.5435 32.871 24.6839 32.2643 24.3886 31.7648C24.0801 31.2449 23.4474 31.0799 22.8754 31.4071C22.108 31.8473 21.3594 32.3193 20.5992 32.7711C19.9606 33.1505 19.6261 33.0926 19.1425 32.5278C18.0362 31.2377 16.9227 29.9548 15.8324 28.6516C14.8506 27.4787 13.6184 26.914 12.0893 26.927C9.57993 26.9473 7.06912 26.9299 4.5583 26.9328C2.82505 26.9342 1.7463 28.0072 1.74485 29.7361C1.74195 33.5183 1.7405 37.299 1.74485 41.0811C1.74485 42.1903 2.65708 42.8723 3.56787 42.4495C4.14127 42.1831 4.34979 41.698 4.34834 41.0797C4.33965 38.6195 4.34544 36.158 4.34544 33.6978C4.34544 33.4994 4.34544 33.3011 4.34544 33.0578H6.08014V55.6031H4.34544V44.2146C3.64317 44.2146 2.96985 44.3145 2.33708 44.1943C0.990443 43.938 0.0246322 42.7362 0.0188402 41.3606C0.00146429 37.3627 -0.0130156 33.3633 0.0246322 29.3654C0.0463521 27.1283 1.9215 25.2473 4.15431 25.2111C6.98803 25.1663 9.82465 25.159 12.6584 25.2155C14.3598 25.2488 15.7962 25.9873 16.9213 27.2774C17.9899 28.501 19.0397 29.7419 20.1344 31.0176C20.7831 30.6295 21.4071 30.2415 22.0457 29.878C23.8542 28.8485 25.9813 29.8505 26.2898 31.9009C26.4606 33.0404 26.032 33.9932 25.0778 34.6173C23.2794 35.7916 21.4419 36.9066 19.6232 38.049C19.1714 38.3328 18.7819 38.2445 18.391 37.9129C17.2195 36.9211 16.038 35.9437 14.7522 34.8707V55.6045H13.0175L13.016 55.6031Z" fill="black"/>
<path d="M25.4802 0C26.3982 0.962915 27.3163 1.92438 28.2488 2.90322C27.907 3.21309 27.4987 3.58089 26.9745 4.05583C26.7559 3.76768 26.4663 3.38685 26.1781 3.00603C26.1318 3.04078 26.0855 3.07554 26.0377 3.11029V12.1226H24.2972V2.94811C23.899 3.41871 23.6022 3.76768 23.2908 4.13547C22.8202 3.62143 22.4496 3.21599 22.1006 2.83517C22.965 1.93741 23.8975 0.968707 24.8301 0C25.0472 0 25.263 0 25.4802 0Z" fill="black"/>
<path d="M42.8215 0C43.7395 0.962915 44.6576 1.92438 45.5901 2.90322C45.2483 3.21309 44.84 3.58089 44.3158 4.05583C44.0972 3.76768 43.8076 3.38685 43.5194 3.00603C43.4731 3.04078 43.4268 3.07554 43.379 3.11029V12.1226H41.6385V2.94811C41.2403 3.41871 40.9435 3.76768 40.6321 4.13547C40.1615 3.62143 39.7909 3.21599 39.4419 2.83517C40.3063 1.93741 41.2388 0.968707 42.1714 0C42.3886 0 42.6043 0 42.8215 0Z" fill="black"/>
<path d="M34.1508 0C35.0688 0.961467 35.9869 1.92438 36.9165 2.90033C36.5762 3.2102 36.1693 3.57944 35.6451 4.05438C35.4294 3.76333 35.1456 3.37961 34.8603 2.9959C34.8096 3.03354 34.759 3.07119 34.7083 3.10884V8.64886H32.9663V2.94522C32.5638 3.41437 32.2655 3.76333 31.9499 4.13257C31.485 3.62288 31.1158 3.21599 30.7668 2.83372C31.6342 1.93597 32.5681 0.967259 33.5007 0C33.7179 0 33.9336 0 34.1508 0Z" fill="black"/>
<path d="M8.68066 55.6031V46.0854H10.4154V55.6031H8.68066Z" fill="black"/>
<path d="M25.7278 36.9704C25.4035 36.4882 25.1037 36.0422 24.7779 35.56C24.9213 35.4529 25.0415 35.3515 25.1718 35.2646C25.861 34.8013 26.5908 34.3871 27.2337 33.8673C28.0041 33.2418 28.6933 33.1187 29.5679 33.7066C30.1051 34.0686 30.7929 34.2177 31.4242 34.4262C31.863 34.571 32.1265 34.8187 32.2134 35.2849C32.3698 36.1378 32.5754 36.982 32.7187 37.8363C32.7737 38.1693 32.9142 38.2547 33.2168 38.2316C33.4862 38.2113 33.7584 38.2272 34.0292 38.2272C34.8603 38.2272 34.856 38.2272 35.0196 37.3845C35.1571 36.675 35.315 35.9698 35.4424 35.2574C35.5235 34.8114 35.7856 34.5826 36.1954 34.4277C37.0193 34.1164 37.8432 33.7978 38.6367 33.4184C39.0855 33.2027 39.4475 33.2157 39.8457 33.4894C40.6479 34.0396 41.4602 34.571 42.2755 35.1155C42.7504 34.6188 43.1964 34.1511 43.7032 33.6212C43.2355 32.9174 42.7548 32.137 42.2161 31.3999C41.8222 30.8613 41.8121 30.4008 42.1379 29.81C42.5014 29.1527 42.7707 28.433 43.0009 27.7134C43.1689 27.1877 43.4237 26.8837 43.9855 26.7881C44.9238 26.6303 45.8535 26.4145 46.8062 26.219V24.1672C45.8433 23.9703 44.8963 23.7574 43.9421 23.588C43.4281 23.4968 43.1863 23.213 43.0183 22.7352C42.7388 21.9373 42.4116 21.1525 42.0438 20.3909C41.8295 19.9478 41.8179 19.5829 42.0945 19.1789C42.6447 18.3752 43.1761 17.56 43.7104 16.7549C43.208 16.2771 42.7287 15.821 42.2045 15.3214C41.4965 15.792 40.7044 16.2916 39.9457 16.8375C39.4548 17.1893 39.032 17.1763 38.4991 16.9012C37.7824 16.532 37.0178 16.2453 36.2562 15.9774C35.8 15.8166 35.522 15.5777 35.4352 15.0869C35.2831 14.2325 35.0775 13.3884 34.9313 12.534C34.8791 12.2314 34.7589 12.1445 34.4722 12.159C33.9336 12.1865 33.2545 11.9968 32.8968 12.2589C32.5797 12.4906 32.6145 13.2117 32.503 13.7185C32.3987 14.1949 32.2974 14.6727 32.209 15.152C32.1323 15.5719 31.8789 15.7993 31.4923 15.9513C30.6394 16.2858 29.7894 16.6304 28.9554 17.0098C28.5442 17.1966 28.2024 17.1676 27.8404 16.9215C27.0353 16.3727 26.223 15.8369 25.3948 15.2823C24.9401 15.7877 24.497 16.28 23.9975 16.8346C24.4275 17.4818 24.914 18.2609 25.4512 19.0037C25.8263 19.5221 25.8509 19.9724 25.5352 20.5472C25.1732 21.2061 24.888 21.9214 24.6693 22.641C24.4927 23.2202 24.19 23.5243 23.6007 23.6228C22.8014 23.756 22.0123 23.9616 21.2115 24.0876C20.8712 24.1412 20.7887 24.2888 20.822 24.5857C20.8321 24.6755 20.8235 24.7667 20.8235 24.8565C20.8235 25.7716 21.2636 26.3141 22.144 26.484C22.6045 26.5738 23.0621 26.6838 23.5254 26.7446C24.1843 26.8315 24.5781 27.1631 24.678 27.8321C24.7041 28.0058 24.7692 28.1738 24.8272 28.3823C24.2986 28.5706 23.7933 28.7501 23.2865 28.9297C23.3039 28.8717 23.3212 28.8138 23.3386 28.7559C23.0172 28.6039 22.7087 28.3968 22.3699 28.3114C21.5663 28.1116 20.7467 27.9725 19.9344 27.8031C19.3291 27.6772 19.0946 27.4064 19.0902 26.7997C19.0815 25.7325 19.083 24.6639 19.0902 23.5967C19.0946 22.977 19.3204 22.7033 19.917 22.5802C20.8177 22.3934 21.7183 22.2052 22.6233 22.0416C22.9288 21.9865 23.0968 21.8577 23.1779 21.5507C23.2546 21.2553 23.3444 20.9454 23.5095 20.6949C23.9178 20.0781 23.8266 19.5698 23.3719 19.0066C22.9086 18.4317 22.5437 17.7787 22.131 17.1633C21.8211 16.7028 21.8675 16.2829 22.257 15.8948C23.0244 15.1289 23.7918 14.3614 24.5564 13.5925C24.9473 13.2001 25.3644 13.1625 25.8219 13.4709C26.5561 13.9661 27.3018 14.4425 28.0243 14.9522C28.3356 15.1723 28.5934 15.2635 28.9481 15.0318C29.216 14.8566 29.5302 14.7176 29.8416 14.6554C30.4714 14.5279 30.6988 14.1471 30.7784 13.5433C30.8812 12.7744 31.0622 12.0157 31.2215 11.2555C31.3475 10.6517 31.6197 10.4243 32.2307 10.42C33.2965 10.4127 34.3622 10.4127 35.4279 10.42C36.0361 10.4243 36.3097 10.6546 36.4357 11.2584C36.624 12.1605 36.7803 13.0698 36.9946 13.9647C37.041 14.1616 37.248 14.36 37.4319 14.4729C37.6723 14.6221 38.001 14.6365 38.2283 14.8002C38.9393 15.3127 39.5214 15.126 40.1426 14.6105C40.6537 14.1862 41.2416 13.8517 41.8005 13.4868C42.3305 13.1408 42.6693 13.1596 43.1081 13.5882C43.8827 14.3469 44.6415 15.1216 45.4075 15.8905C45.7984 16.2829 45.8288 16.7028 45.5219 17.1604C45.0078 17.9264 44.5112 18.7025 43.9841 19.4583C43.8089 19.7103 43.7582 19.9159 43.9204 20.1954C44.0826 20.4748 44.2549 20.7746 44.3099 21.0844C44.4388 21.8157 44.8848 22.0589 45.5668 22.1415C46.298 22.2298 47.0205 22.4094 47.7431 22.5672C48.3469 22.699 48.5641 22.9712 48.5684 23.5866C48.5757 24.6537 48.5757 25.7224 48.5684 26.7895C48.5641 27.3962 48.3397 27.6685 47.7286 27.7973C46.8294 27.9885 45.9215 28.142 45.0267 28.3563C44.8283 28.404 44.6314 28.6097 44.5141 28.7936C44.3722 29.0165 44.3606 29.3264 44.2114 29.5422C43.7177 30.2604 43.8277 30.8656 44.3809 31.5114C44.8124 32.0153 45.141 32.609 45.503 33.1723C45.8564 33.7211 45.8216 34.0512 45.3582 34.5218C44.6357 35.2574 43.9074 35.9857 43.1747 36.7097C42.6621 37.2165 42.3566 37.2397 41.7412 36.8328C40.9882 36.3347 40.2483 35.8163 39.4808 35.3414C39.3201 35.2429 39.0493 35.2386 38.8582 35.295C38.515 35.395 38.2066 35.6339 37.862 35.7034C37.1829 35.8395 36.9498 36.2536 36.8687 36.8951C36.776 37.6278 36.595 38.3503 36.443 39.0757C36.3039 39.7418 36.0462 39.9503 35.3584 39.9532C34.3289 39.9576 33.2994 39.959 32.2698 39.9532C31.6197 39.9489 31.3518 39.7317 31.22 39.1004C31.0333 38.1983 30.8769 37.2889 30.6611 36.3941C30.6133 36.1957 30.4063 35.9828 30.218 35.8844C29.8213 35.6759 29.3608 35.5832 28.9771 35.3573C28.5977 35.1343 28.3313 35.2096 28.0041 35.4398C27.2699 35.9568 26.5126 36.4419 25.7307 36.9617L25.7278 36.9704Z" fill="black"/>
<path d="M33.8237 19.1138C37.1324 19.1051 39.8749 21.8215 39.8937 25.1244C39.9125 28.5257 37.1874 31.2769 33.7976 31.2755C30.4991 31.2755 27.7668 28.5431 27.7566 25.2345C27.7465 21.8534 30.4542 19.1225 33.8237 19.1138ZM33.7991 29.5364C36.1752 29.5495 38.1373 27.6251 38.159 25.262C38.1807 22.8293 36.2404 20.8572 33.8208 20.8514C31.4533 20.847 29.5043 22.783 29.4899 25.1548C29.4754 27.5599 31.4056 29.522 33.7991 29.535V29.5364Z" fill="black"/>
<path d="M4.34403 18.6516C4.13842 15.7672 6.19312 13.533 8.72276 13.0682C11.6535 12.5295 14.7117 14.9882 14.7479 17.9725C14.7609 19.073 14.7985 20.1677 14.3265 21.2146C13.2926 23.5038 10.8817 24.739 8.40855 24.2134C6.04543 23.7123 4.34548 21.5679 4.34403 19.0846C4.34403 18.9398 4.34403 18.795 4.34403 18.6502V18.6516ZM6.08163 18.6574C6.08163 18.8196 6.07583 18.9832 6.08163 19.1454C6.14968 20.7063 7.1097 21.9748 8.5548 22.4178C9.95645 22.8479 11.4682 22.3339 12.3427 21.1349C13.0016 20.2299 13.074 19.1917 13.0045 18.1318C12.8568 15.9106 10.97 14.4553 8.80675 14.8752C7.14445 15.1982 6.08018 16.6737 6.08163 18.6574Z" fill="black"/>
</g>
<defs>
<clipPath id="clip0_89_2052">
<rect width="48.57" height="55.6029" fill="white"/>
</clipPath>
</defs>
</svg>
