<svg width="108" height="108" viewBox="0 0 108 108" fill="none" xmlns="http://www.w3.org/2000/svg">
<circle cx="54" cy="54" r="54" fill="#3F8DDC"/>
<g clip-path="url(#clip0_61_232)">
<path d="M61.56 67.1472C57.7512 67.0392 55.0152 65.2032 53.2368 61.9272C51.4008 58.5432 51.3144 55.0008 52.596 51.4152C54 47.4912 56.4552 44.3016 59.6232 41.6376C61.4232 40.1256 63.324 38.7504 65.4768 37.7712C66.4272 37.3392 67.4136 36.9792 68.472 36.9288C68.8392 36.9072 69.2208 36.9288 69.5736 37.0224C70.8768 37.3464 71.424 38.7216 70.7184 39.8592C70.2936 40.5432 69.66 41.0184 68.9976 41.4432C67.824 42.192 66.6288 42.9048 65.4696 43.668C64.26 44.4672 63.1008 45.3384 62.1432 46.44C61.6896 46.9584 61.2864 47.5128 61.1568 48.2112C61.0416 48.8232 61.2288 49.2624 61.8192 49.4712C62.3016 49.6368 62.8128 49.7664 63.324 49.788C66.4344 49.9464 68.4 51.7032 69.6456 54.3672C71.0064 57.2616 71.028 60.1776 69.3072 62.9496C67.8096 65.3544 65.5632 66.6576 62.7768 67.0464C62.3808 67.104 61.9704 67.1112 61.5744 67.1472H61.56Z" fill="#F5E9E9"/>
<path d="M51.8544 47.3688C49.0392 52.596 48.4416 57.816 51.2136 63.18C50.3928 63.5832 49.5504 63.8208 48.672 63.9504C43.92 64.6344 40.14 61.9272 38.4264 57.8088C37.0296 54.4536 37.1952 51.084 38.5128 47.7504C39.9024 44.244 42.12 41.328 44.964 38.8728C46.8648 37.2312 48.8736 35.7408 51.1776 34.704C52.2864 34.1928 53.4384 33.7752 54.6984 33.8472C55.4976 33.8904 56.1744 34.164 56.5272 34.9488C56.88 35.7336 56.7216 36.4608 56.1816 37.1088C55.5552 37.8648 54.7272 38.3688 53.8992 38.8728C52.2072 39.8952 50.5152 40.9176 49.0104 42.2136C48.276 42.8472 47.5776 43.5168 47.1168 44.3808C46.4616 45.5976 46.7928 46.3392 48.1464 46.5984C48.816 46.728 49.5072 46.7352 50.1768 46.872C50.7312 46.98 51.264 47.196 51.8544 47.376V47.3688Z" fill="#F5E9E9"/>
</g>
<defs>
<clipPath id="clip0_61_232">
<rect width="33.5808" height="33.3072" fill="white" transform="translate(37.44 33.8401)"/>
</clipPath>
</defs>
</svg>
