<svg width="44" height="51" viewBox="0 0 44 51" fill="none" xmlns="http://www.w3.org/2000/svg">
<g clip-path="url(#clip0_553_467)">
<path d="M23.4548 0C24.3664 0.128592 25.2821 0.235089 26.1893 0.38931C29.9312 1.0252 33.2826 2.55151 36.2534 4.89974C38.8054 6.91655 40.8297 9.38012 42.2915 12.2909C43.7966 15.2878 44.2818 18.458 43.8483 21.7762C43.6327 23.4267 43.105 24.9848 42.4802 26.5195C40.5005 31.3812 38.5332 36.2483 36.5734 41.1184C36.4541 41.4149 36.3949 41.7556 36.3931 42.0764C36.3785 44.5899 36.3865 47.1039 36.3842 49.6174C36.3834 50.5409 36.1204 50.807 35.2137 50.807C28.6648 50.8078 22.1163 50.8078 15.5674 50.807C14.6549 50.807 14.3831 50.5405 14.3818 49.628C14.3783 47.445 14.3805 45.2621 14.3805 43.0791C14.3805 42.8842 14.3805 42.6893 14.3805 42.4321C13.4512 42.5272 12.5833 42.6129 11.7163 42.7061C10.977 42.7852 10.2399 42.92 9.49931 42.9465C8.03575 42.9991 6.99774 42.2267 6.22044 41.0716C5.71801 40.3247 5.52578 39.4759 5.58765 38.5704C5.7591 36.0635 5.92481 33.5562 6.09052 31.0489C6.10113 30.8854 6.09185 30.7206 6.09185 30.4784C5.90714 30.4784 5.73347 30.4784 5.55937 30.4784C4.08741 30.4784 2.6159 30.4745 1.14394 30.4811C0.733423 30.4828 0.337042 30.4705 0.10814 30.0573C-0.115459 29.6539 0.0458331 29.2999 0.259711 28.9446C1.78513 26.4112 3.311 23.8774 4.81742 21.333C4.96767 21.0793 5.05693 20.7523 5.06312 20.4571C5.10598 18.4434 4.98534 16.4248 5.38305 14.4266C6.16079 10.5193 7.99642 7.2082 10.9668 4.55771C13.9328 1.91164 17.4088 0.401683 21.3823 0.0702614C21.4791 0.0623073 21.5732 0.0238624 21.6687 0C22.2639 0 22.8596 0 23.4548 0ZM2.35783 28.7864C3.82669 28.7864 5.19834 28.7864 6.56998 28.7864C7.67428 28.7864 7.93279 29.0533 7.85855 30.1417C7.70963 32.3189 7.55232 34.4953 7.4034 36.6725C7.35125 37.4308 7.26818 38.1908 7.27922 38.9491C7.29955 40.3663 8.46792 41.3552 9.86122 41.2032C11.5205 41.0221 13.1799 40.8418 14.8409 40.6796C15.7636 40.5894 16.0765 40.8926 16.0774 41.8268C16.0796 44.0592 16.0783 46.2917 16.0783 48.5241C16.0783 48.7128 16.0783 48.9011 16.0783 49.0858H34.6905C34.6905 48.8772 34.6905 48.6982 34.6905 48.5188C34.6905 46.3195 34.6768 44.1198 34.7019 41.9204C34.7068 41.4865 34.7956 41.0282 34.9565 40.6261C36.6547 36.3804 38.394 32.1514 40.0807 27.9013C40.7612 26.1863 41.4921 24.4686 41.9331 22.686C42.759 19.3466 42.3273 16.0846 40.7572 13.0094C38.6326 8.84852 35.4399 5.75083 31.2344 3.738C28.1632 2.26781 24.9175 1.50245 21.4879 1.7773C17.4282 2.10254 13.9792 3.76937 11.1754 6.70356C8.68799 9.30676 7.21648 12.4265 6.88638 16.0223C6.74453 17.5649 6.82672 19.1275 6.75514 20.6781C6.73481 21.1186 6.61682 21.6003 6.39764 21.9781C5.17845 24.0785 3.91419 26.1523 2.66627 28.2354C2.57569 28.3869 2.49349 28.5438 2.35827 28.7855L2.35783 28.7864Z" fill="black"/>
<path d="M28.6198 25.0564C29.6914 26.219 29.9812 27.3432 29.2322 28.3406C28.5725 29.2186 28.8672 30.1289 28.7956 31.0321C28.7864 31.1479 28.9247 31.2849 29.0131 31.3976C29.6357 32.1912 29.8067 33.0653 29.413 34.0004C29.0131 34.9509 28.2746 35.5161 27.2371 35.5373C25.4368 35.5739 23.6343 35.5726 21.834 35.5373C20.8159 35.5174 20.085 34.9637 19.6829 34.0388C19.2803 33.113 19.4332 32.2403 20.0324 31.425C20.1743 31.2319 20.2454 30.9663 20.2856 30.7237C20.328 30.4665 20.2847 30.1961 20.2975 29.9323C20.3241 29.3834 20.2405 28.9128 19.8853 28.4245C19.1862 27.4634 19.3545 26.1934 20.2039 25.3507C20.4292 25.1271 20.4107 24.9777 20.294 24.7201C20.0103 24.0944 19.6051 23.5853 19.1217 23.0922C17.4964 21.4342 16.7615 19.4218 16.9829 17.0974C17.2326 14.4778 18.5353 12.522 20.785 11.1764C23.3166 9.66207 26.922 9.93162 29.2128 11.7836C31.0581 13.275 32.0582 15.2034 32.1399 17.5543C32.2133 19.6573 31.4832 21.5035 30.0276 23.0427C29.7895 23.2941 29.4784 23.4903 29.2897 23.7718C29.0254 24.166 28.8442 24.6163 28.6202 25.0568L28.6198 25.0564ZM24.5097 24.5593C25.1871 24.5593 25.8654 24.5411 26.5415 24.5668C26.8729 24.5796 27.0356 24.4567 27.1849 24.1673C27.5362 23.4859 27.7925 22.7629 28.4178 22.2247C29.9163 20.9353 30.5778 19.264 30.4165 17.2883C30.1377 13.8711 26.9843 11.362 23.6299 11.9409C21.3302 12.3377 19.7045 13.6656 18.9515 15.8813C18.1994 18.0939 18.6373 20.1611 20.2675 21.8376C20.9767 22.5672 21.5163 23.3463 21.9577 24.2362C22.0346 24.3913 22.2949 24.535 22.4779 24.5447C23.1535 24.5809 23.8318 24.5593 24.5092 24.5593H24.5097ZM24.5618 26.2597C23.7532 26.2597 22.9445 26.2592 22.1363 26.2597C21.7474 26.2597 21.4195 26.375 21.2428 26.7559C20.9648 27.3547 21.3979 27.9393 22.1654 27.9477C23.7328 27.9645 25.3007 27.9592 26.8685 27.9499C27.5354 27.9459 27.9251 27.6083 27.9154 27.086C27.9057 26.5624 27.5283 26.2663 26.8394 26.2601C26.0802 26.2535 25.321 26.2583 24.5623 26.2597H24.5618ZM24.4947 33.8673C25.287 33.8673 26.0789 33.8731 26.8712 33.8656C27.5429 33.859 27.9282 33.5364 27.9158 33.0101C27.9043 32.505 27.5256 32.1815 26.8858 32.1775C25.3179 32.1678 23.7501 32.1674 22.1822 32.1775C21.5402 32.182 21.1725 32.5054 21.1685 33.0193C21.1641 33.5386 21.5273 33.8563 22.1676 33.8643C22.9432 33.8744 23.7191 33.8665 24.4947 33.8669V33.8673ZM27.0581 29.6861H22.0254V30.4449H27.0581V29.6861Z" fill="black"/>
<path d="M17.9215 5.21565C18.0408 5.30315 18.3435 5.42246 18.4818 5.64385C19.0731 6.59437 19.6268 7.56919 20.1721 8.5471C20.4248 9.00005 20.2878 9.47818 19.891 9.71415C19.4853 9.95542 19.0037 9.85246 18.7346 9.40571C18.1477 8.43265 17.5711 7.45209 17.0302 6.45296C16.716 5.87187 17.123 5.22316 17.9219 5.21521L17.9215 5.21565Z" fill="black"/>
<path d="M12.8741 10.1711C12.9771 10.2096 13.1728 10.2547 13.3403 10.3497C14.2435 10.8609 15.1428 11.3793 16.0372 11.906C16.5767 12.2237 16.7296 12.6939 16.4618 13.1433C16.2108 13.564 15.7186 13.6652 15.2064 13.3749C14.2745 12.8468 13.3478 12.3099 12.4251 11.7668C12.0645 11.5547 11.8794 11.233 11.9916 10.8088C12.0955 10.416 12.3708 10.2034 12.8741 10.1711Z" fill="black"/>
<path d="M32.2466 5.94336C32.1136 6.25932 32.0495 6.46524 31.9457 6.64818C31.457 7.50944 30.9616 8.36672 30.4609 9.2209C30.1185 9.80553 29.6611 9.97654 29.1989 9.70964C28.7481 9.4498 28.6699 8.95179 29.0044 8.36583C29.5197 7.4626 30.0402 6.5629 30.5665 5.66585C30.7963 5.27433 31.1741 5.09183 31.5758 5.27963C31.8489 5.40734 32.0341 5.72285 32.2475 5.94292L32.2466 5.94336Z" fill="black"/>
<path d="M33.256 13.6528C33.02 13.4345 32.7218 13.2529 32.5636 12.9882C32.3647 12.655 32.4893 12.267 32.8093 12.0712C33.8353 11.4424 34.8773 10.8375 35.9352 10.263C36.3325 10.0474 36.8173 10.2409 36.9998 10.6174C37.1964 11.0231 37.146 11.4345 36.7598 11.6722C35.7346 12.3023 34.6829 12.8887 33.6383 13.4866C33.5561 13.5339 33.4474 13.5352 33.3515 13.5578C33.3197 13.5896 33.2883 13.6214 33.2565 13.6532L33.256 13.6528Z" fill="black"/>
<path d="M12.6526 18.6409C12.1418 18.6409 11.631 18.6537 11.1206 18.6378C10.5315 18.6196 10.1599 18.2812 10.1572 17.7929C10.1546 17.2944 10.5178 16.9594 11.1117 16.9533C12.1661 16.9426 13.2205 16.9422 14.2748 16.9537C14.844 16.9599 15.1957 17.2785 15.2134 17.7588C15.2315 18.2462 14.8603 18.6139 14.2837 18.6356C13.7406 18.6559 13.1966 18.64 12.6526 18.6404V18.6409Z" fill="black"/>
<path d="M36.4186 16.9529C36.9621 16.9529 37.5061 16.9388 38.0492 16.9569C38.5719 16.9745 38.9184 17.317 38.9241 17.7784C38.9294 18.2048 38.5985 18.6073 38.1181 18.6202C36.9661 18.6511 35.8123 18.6537 34.6603 18.6175C34.1428 18.6012 33.8375 18.1946 33.8706 17.724C33.9024 17.275 34.225 16.9728 34.7385 16.9564C35.2979 16.9388 35.8587 16.9524 36.4186 16.9524V16.9529Z" fill="black"/>
<path d="M25.3821 5.95085C25.3821 6.46168 25.394 6.97251 25.3795 7.48246C25.3618 8.10156 25.0626 8.44182 24.5584 8.45242C24.052 8.46303 23.7069 8.12365 23.6945 7.52223C23.6729 6.46831 23.6742 5.41395 23.6941 4.36003C23.7051 3.767 24.0591 3.3989 24.5434 3.402C25.0317 3.40509 25.3605 3.77142 25.3786 4.36975C25.3945 4.89649 25.3821 5.42367 25.3821 5.95085Z" fill="black"/>
</g>
<defs>
<clipPath id="clip0_553_467">
<rect width="44" height="50.8074" fill="white"/>
</clipPath>
</defs>
</svg>
