<svg width="193" height="64" viewBox="0 0 193 64" fill="none" xmlns="http://www.w3.org/2000/svg">
<path d="M0.0808074 51.0572V45.6902C2.38384 46.5185 4.80135 47.1649 7.82492 47.1649C10.8485 47.1649 11.9057 46.2963 11.9057 44.707C11.9057 43.1178 11.2256 42.707 8.6936 42.2155L6.72727 41.8383C2.57239 41.0437 0 39.1919 0 33.7171C0 28.7676 3.09764 25.5219 9.74411 25.5219C13.899 25.5219 15.9798 26.1616 17.4882 26.8821V32.1683C15.6768 31.5286 13.4074 30.9225 10.4242 30.9225C8.08081 30.9225 6.87542 31.6431 6.87542 33.1515C6.87542 34.5522 7.62963 35.0774 9.93266 35.5286L11.899 35.9057C16.5051 36.7744 19.0774 38.6262 19.0774 43.9528C19.0774 49.542 15.4882 52.606 8.68687 52.606C5.02357 52.606 1.9596 52.0404 0.0740745 51.0572H0.0808074Z" fill="#204885"/>
<path d="M20.5185 46.8282C20.5185 42.5993 23.4276 41.1649 27.8114 40.5589L31.4747 40.0673V39.1986C31.4747 37.0841 30.4579 36.6262 27.5488 36.6262C25.5488 36.6262 23.6229 36.8888 22.2222 37.2323V32.8484C24.303 32.0538 26.9427 31.6767 30.0808 31.6767C35.0303 31.6767 38.0875 33.2996 38.0875 37.8316V52.1481H32.5724L32.1212 50.5993H31.8922C31.0639 51.8114 29.2862 52.5252 26.7946 52.5252C23.0909 52.5252 20.5252 50.6734 20.5252 46.8215L20.5185 46.8282ZM31.468 47.542V43.6498L29.1246 43.8787C27.5353 43.9932 26.8552 44.633 26.8552 46.1481C26.8552 47.8114 27.798 48.3367 29.0437 48.3367C30.0606 48.3367 31.0101 47.9932 31.4613 47.542H31.468Z" fill="#204885"/>
<path d="M41.1381 32.0538H47.5219V33.8316H47.7105C49.3738 32.5117 51.3401 31.6767 53.9462 31.6767C56.2492 31.6767 57.8384 32.3569 58.7475 33.9461H58.9361C60.9024 32.5117 63.165 31.6767 65.5825 31.6767C69.0169 31.6767 71.0573 33.1515 71.0573 37.1178V52.1548H64.4445V38.9697C64.4445 37.4612 63.8384 36.8552 62.2155 36.8552C61.2324 36.8552 60.3637 37.1178 59.3805 37.5353C59.3805 37.6835 59.4209 37.8383 59.4209 37.9865V52.1548H52.8081V38.9697C52.8081 37.4612 52.1684 36.8552 50.5792 36.8552C49.596 36.8552 48.5792 37.1582 47.7441 37.5353V52.1548H41.1313V32.0538H41.1381Z" fill="#204885"/>
<path d="M73.2121 46.8282C73.2121 42.5993 76.1212 41.1649 80.505 40.5589L84.1683 40.0673V39.1986C84.1683 37.0841 83.1515 36.6262 80.2424 36.6262C78.2424 36.6262 76.3165 36.8888 74.9158 37.2323V32.8484C76.9966 32.0538 79.6363 31.6767 82.7744 31.6767C87.7239 31.6767 90.7811 33.2996 90.7811 37.8316V52.1481H85.266L84.8148 50.5993H84.5858C83.7576 51.8114 81.9798 52.5252 79.4882 52.5252C75.7845 52.5252 73.2188 50.6734 73.2188 46.8215L73.2121 46.8282ZM84.1683 47.542V43.6498L81.8249 43.8787C80.2357 43.9932 79.5555 44.633 79.5555 46.1481C79.5555 47.8114 80.4983 48.3367 81.7441 48.3367C82.7609 48.3367 83.7104 47.9932 84.1616 47.542H84.1683Z" fill="#204885"/>
<path d="M93.8384 32.0538H100.222V34.4714H100.411C101.468 32.9225 103.279 31.8249 105.401 31.8249C105.926 31.8249 106.343 31.899 106.572 32.0134V37.8316C106.155 37.7575 105.441 37.6431 104.875 37.6431C103.098 37.6431 101.589 37.9865 100.458 38.5522V52.1549H93.8451V32.0538H93.8384Z" fill="#204885"/>
<path d="M110.343 46.6734V36.6599H107.852V32.0538H110.343V27.2929H116.99V32.0538H121.071V36.6599H116.99V45.7239C116.99 47.1246 117.596 47.5757 119.219 47.5757C119.899 47.5757 120.653 47.4613 121.185 47.3468V51.6161C120.391 52.0336 118.882 52.4444 116.768 52.4444C112.727 52.4444 110.343 51.0842 110.343 46.6666V46.6734Z" fill="#204885"/>
<path d="M123.569 24.2357H130.182V33.6767H130.37C131.919 32.4309 134 31.6767 136.525 31.6767C140.263 31.6767 142.458 33.2256 142.458 37.1919V52.1548H135.845V39.0101C135.845 37.4208 135.165 36.8552 133.313 36.8552C132.256 36.8552 131.01 37.1919 130.175 37.5353V52.1548H123.562V24.2357H123.569Z" fill="#204885"/>
<path d="M0.0336304 57.3336H3.61612C4.00669 57.3336 4.35686 57.4077 4.66663 57.5491C4.97639 57.6905 5.21881 57.906 5.3939 58.1821C5.56898 58.4582 5.65652 58.7814 5.65652 59.1518C5.65652 59.4414 5.59592 59.6973 5.46797 59.9329C5.34003 60.1686 5.17168 60.3505 4.96292 60.4919C4.75417 60.6333 4.51848 60.7343 4.26259 60.7814V60.8959C4.52521 60.9498 4.7407 61.0575 4.90232 61.2191C5.06393 61.3808 5.21881 61.6434 5.38043 62.0138C5.54205 62.3841 5.75753 62.9969 6.04036 63.8454H4.37033C4.30972 63.6501 4.24238 63.4616 4.17504 63.273C4.09423 63.0171 4.01343 62.7814 3.93935 62.5592C3.86528 62.3437 3.79121 62.1619 3.7104 62.0205C3.63632 61.8791 3.55551 61.7579 3.46797 61.6703C3.3737 61.576 3.26595 61.5087 3.13801 61.4616C3.01006 61.4144 2.86191 61.3942 2.68683 61.3942H1.65653V63.8454H0.0336304V57.3336ZM3.58918 60.2158C3.73733 60.1484 3.84508 60.0474 3.92589 59.9195C3.99996 59.7848 4.04036 59.6232 4.04036 59.4279C4.04036 59.1249 3.95282 58.9094 3.78447 58.768C3.61612 58.6265 3.3535 58.5592 3.0168 58.5592H1.65653V60.31H3.06393C3.27269 60.31 3.44777 60.2764 3.59592 60.209L3.58918 60.2158Z" fill="#231F20"/>
<path d="M7.07739 57.3333H12.1212V58.6263H8.70029V59.9461H11.8316V61.1448H8.70029V62.5589H12.2087V63.8519H7.07739V57.3401V57.3333Z" fill="#231F20"/>
<path d="M13.5219 57.3333H15.1447V62.4916H18.2289V63.8519H13.5219V57.3401V57.3333Z" fill="#231F20"/>
<path d="M19.3804 57.3333H21.0033V63.8451H19.3804V57.3333Z" fill="#231F20"/>
<path d="M24.3568 57.3333H25.9999L28.404 63.8451H26.7137L25.1851 59.0101H25.1582L23.5488 63.8451H21.9191L24.3636 57.3333H24.3568ZM24.1885 61.367H26.1144L26.4646 62.5185H23.8249L24.1952 61.367H24.1885Z" fill="#231F20"/>
<path d="M29.313 57.3333H30.9427L33.5353 61.4276H33.5555V57.3333H35.0639V63.8451H33.4881L30.8484 59.7037H30.8282V63.8451H29.313V57.3333Z" fill="#231F20"/>
<path d="M37.8586 63.5623C37.3737 63.2728 36.9966 62.8687 36.7407 62.3502C36.4848 61.8317 36.3569 61.2458 36.3569 60.5859C36.3569 59.926 36.4848 59.3468 36.7474 58.835C37.0101 58.3165 37.3872 57.9192 37.8788 57.6229C38.3703 57.3334 38.9495 57.1852 39.6161 57.1852C40.1212 57.1852 40.5724 57.266 40.9764 57.4276C41.3804 57.5893 41.7104 57.8317 41.973 58.1549C42.2357 58.4781 42.404 58.862 42.4781 59.3266H40.8956C40.8417 59.165 40.7474 59.0236 40.6262 58.8956C40.505 58.7744 40.3569 58.6802 40.1751 58.6128C40 58.5455 39.8114 58.5118 39.6094 58.5118C39.2525 58.5118 38.9562 58.5994 38.7138 58.7677C38.4781 58.9428 38.2963 59.1785 38.1818 59.4882C38.0673 59.798 38.0067 60.1616 38.0067 60.5792C38.0067 60.9967 38.0673 61.3401 38.1818 61.6566C38.2963 61.9731 38.4781 62.2155 38.7138 62.3973C38.9562 62.5792 39.2525 62.6667 39.6094 62.6667C39.8451 62.6667 40.0471 62.6263 40.2289 62.5455C40.4107 62.4647 40.5589 62.3435 40.6801 62.1953C40.8013 62.0404 40.8821 61.8519 40.9225 61.6364H42.532C42.4781 62.101 42.3299 62.5118 42.0673 62.8687C41.8114 63.2256 41.468 63.5017 41.037 63.7037C40.6128 63.899 40.1347 64 39.6027 64C38.9225 64 38.3434 63.8519 37.8518 63.5623H37.8586Z" fill="#231F20"/>
<path d="M43.7845 57.3333H48.8283V58.6263H45.4074V59.9461H48.5387V61.1448H45.4074V62.5589H48.9158V63.8519H43.7845V57.3401V57.3333Z" fill="#231F20"/>
<path d="M53.2054 57.3333H56.7879C57.1784 57.3333 57.5286 57.4074 57.8384 57.5488C58.1481 57.6902 58.3906 57.9057 58.5657 58.1818C58.7407 58.4579 58.8283 58.7812 58.8283 59.1515C58.8283 59.4411 58.7677 59.697 58.6397 59.9327C58.5118 60.1684 58.3434 60.3502 58.1347 60.4916C57.9259 60.633 57.6902 60.734 57.4343 60.7812V60.8956C57.697 60.9495 57.9125 61.0573 58.0741 61.2189C58.2357 61.3805 58.3906 61.6431 58.5522 62.0135C58.7138 62.3839 58.9293 62.9966 59.2121 63.8451H57.5421C57.4815 63.6498 57.4141 63.4613 57.3468 63.2727C57.266 63.0168 57.1852 62.7812 57.1111 62.5589C57.037 62.3434 56.963 62.1616 56.8822 62.0202C56.8081 61.8788 56.7273 61.7576 56.6397 61.67C56.5454 61.5758 56.4377 61.5084 56.3098 61.4613C56.1818 61.4141 56.0337 61.3939 55.8586 61.3939H54.8283V63.8451H53.2054V57.3333ZM56.7609 60.2155C56.9091 60.1482 57.0168 60.0472 57.0976 59.9192C57.1717 59.7845 57.2121 59.6229 57.2121 59.4276C57.2121 59.1246 57.1246 58.9091 56.9562 58.7677C56.7879 58.6263 56.5252 58.5589 56.1885 58.5589H54.8283V60.3098H56.2357C56.4444 60.3098 56.6195 60.2761 56.7677 60.2088L56.7609 60.2155Z" fill="#231F20"/>
<path d="M60.2491 57.3333H65.2929V58.6263H61.872V59.9461H65.0034V61.1448H61.872V62.5589H65.3805V63.8519H60.2491V57.3401V57.3333Z" fill="#231F20"/>
<path d="M68.1683 58.6869H66.2357V57.3266H71.7239V58.6869H69.7912V63.8451H68.1683V58.6869Z" fill="#231F20"/>
<path d="M73.8855 57.3333H75.5286L77.9326 63.8451H76.2424L74.7137 59.0101H74.6868L73.0774 63.8451H71.4478L73.8922 57.3333H73.8855ZM73.7171 61.367H75.643L75.9932 62.5185H73.3535L73.7238 61.367H73.7171Z" fill="#231F20"/>
<path d="M78.8687 57.3333H80.4916V63.8451H78.8687V57.3333Z" fill="#231F20"/>
<path d="M82.0403 57.3333H83.6632V62.4916H86.7474V63.8519H82.0403V57.3401V57.3333Z" fill="#231F20"/>
<path d="M91.8249 63.7643C91.4074 63.6095 91.0842 63.3805 90.8552 63.0842C90.6263 62.7879 90.505 62.431 90.4916 62.0068H92.0943C92.1077 62.2627 92.2289 62.4647 92.4512 62.6061C92.6734 62.7475 92.9832 62.8148 93.367 62.8148C93.5892 62.8148 93.7845 62.7879 93.9596 62.734C94.1347 62.6802 94.2694 62.5994 94.3636 62.4849C94.4579 62.3704 94.5118 62.2357 94.5118 62.0674C94.5118 61.926 94.4714 61.8115 94.3973 61.7172C94.3232 61.6229 94.2087 61.5354 94.0539 61.4613C93.899 61.3872 93.697 61.3132 93.4343 61.2323L92.3434 60.9428C91.9731 60.8418 91.6633 60.7071 91.4209 60.5455C91.1784 60.3839 91.0034 60.1886 90.8821 59.9596C90.7609 59.7307 90.7071 59.468 90.7071 59.165C90.7071 58.7542 90.8148 58.4041 91.0303 58.101C91.2458 57.798 91.5488 57.569 91.9327 57.4074C92.3165 57.2458 92.7677 57.165 93.2862 57.165C93.8047 57.165 94.229 57.2323 94.6061 57.3738C94.9832 57.5152 95.2795 57.7172 95.4949 57.9866C95.7104 58.2559 95.8316 58.5859 95.8586 58.9765H94.3232C94.2895 58.835 94.2289 58.7206 94.1414 58.6263C94.0539 58.532 93.9327 58.4579 93.7845 58.4108C93.6364 58.3637 93.4545 58.3435 93.2458 58.3435C93.0505 58.3435 92.8821 58.3704 92.734 58.4108C92.5858 58.4579 92.4714 58.532 92.3838 58.633C92.2963 58.734 92.2559 58.862 92.2559 59.0101C92.2559 59.1381 92.2828 59.2391 92.3367 59.3266C92.3906 59.4142 92.4848 59.4882 92.6128 59.5488C92.7475 59.6095 92.9293 59.6701 93.1717 59.7307L93.9663 59.926C94.4714 60.0606 94.8754 60.202 95.1852 60.3637C95.4949 60.5253 95.7239 60.7273 95.8855 60.9697C96.0404 61.2121 96.1212 61.5219 96.1212 61.8855C96.1212 62.3031 96.0135 62.6667 95.798 62.9832C95.5825 63.2997 95.266 63.5488 94.8417 63.7239C94.4175 63.899 93.9057 63.9866 93.3131 63.9866C92.7205 63.9866 92.2492 63.9057 91.8249 63.7509V63.7643Z" fill="#231F20"/>
<path d="M97.2996 57.3333H98.9225V59.8317H98.9427L101.037 57.3333H102.949L99.8451 60.7744L98.9225 61.4882V63.8451H97.2996V57.3333ZM100.384 62.1616C100.162 61.8047 99.9663 61.5623 99.7777 61.4344C99.5959 61.3064 99.3737 61.2458 99.1178 61.2391L100.249 60.2088C100.572 60.2424 100.848 60.3434 101.077 60.5185C101.306 60.6936 101.576 61.0303 101.885 61.5219C102.189 62.0135 102.606 62.7879 103.131 63.8451H101.252C100.889 63.0774 100.599 62.5185 100.377 62.1549L100.384 62.1616Z" fill="#231F20"/>
<path d="M104.114 57.3333H105.737V63.8451H104.114V57.3333Z" fill="#231F20"/>
<path d="M107.293 57.3333H108.916V62.4916H112V63.8519H107.293V57.3401V57.3333Z" fill="#231F20"/>
<path d="M113.138 57.3333H114.761V62.4916H117.845V63.8519H113.138V57.3401V57.3333Z" fill="#231F20"/>
<path d="M123.751 57.3333H125.394L127.798 63.8451H126.108L124.579 59.0101H124.552L122.943 63.8451H121.313L123.758 57.3333H123.751ZM123.582 61.367H125.508L125.859 62.5185H123.219L123.589 61.367H123.582Z" fill="#231F20"/>
<path d="M129.859 63.5623C129.374 63.2728 128.997 62.8687 128.741 62.3502C128.485 61.8317 128.357 61.2458 128.357 60.5859C128.357 59.926 128.485 59.3468 128.747 58.835C129.01 58.3165 129.387 57.9192 129.879 57.6229C130.37 57.3334 130.949 57.1852 131.616 57.1852C132.121 57.1852 132.572 57.266 132.976 57.4276C133.38 57.5893 133.71 57.8317 133.973 58.1549C134.236 58.4781 134.404 58.862 134.478 59.3266H132.896C132.842 59.165 132.747 59.0236 132.626 58.8956C132.505 58.7744 132.357 58.6802 132.175 58.6128C132 58.5455 131.811 58.5118 131.609 58.5118C131.252 58.5118 130.956 58.5994 130.714 58.7677C130.478 58.9428 130.296 59.1785 130.182 59.4882C130.067 59.798 130.007 60.1616 130.007 60.5792C130.007 60.9967 130.067 61.3401 130.182 61.6566C130.296 61.9731 130.478 62.2155 130.714 62.3973C130.956 62.5792 131.252 62.6667 131.609 62.6667C131.845 62.6667 132.047 62.6263 132.229 62.5455C132.411 62.4647 132.559 62.3435 132.68 62.1953C132.801 62.0404 132.882 61.8519 132.923 61.6364H134.532C134.478 62.101 134.33 62.5118 134.067 62.8687C133.811 63.2256 133.468 63.5017 133.037 63.7037C132.613 63.899 132.135 64 131.603 64C130.923 64 130.343 63.8519 129.852 63.5623H129.859Z" fill="#231F20"/>
<path d="M137.488 57.3333H139.131L141.535 63.8451H139.845L138.316 59.0101H138.29L136.68 63.8451H135.05L137.495 57.3333H137.488ZM137.32 61.367H139.246L139.596 62.5185H136.956L137.327 61.367H137.32Z" fill="#231F20"/>
<path d="M142.458 57.3333H145.279C145.919 57.3333 146.478 57.4613 146.943 57.7104C147.414 57.9596 147.771 58.33 148.02 58.8148C148.269 59.2997 148.391 59.8788 148.391 60.5522C148.391 61.2593 148.269 61.8653 148.02 62.3569C147.778 62.8485 147.414 63.2256 146.943 63.4748C146.471 63.7239 145.906 63.8519 145.239 63.8519H142.458V57.3401V57.3333ZM145.993 62.3165C146.242 62.1818 146.431 61.9731 146.566 61.6902C146.7 61.4074 146.761 61.037 146.761 60.5926C146.761 60.1482 146.694 59.7778 146.559 59.495C146.424 59.2121 146.222 58.9966 145.953 58.862C145.683 58.7273 145.36 58.6599 144.97 58.6599H144.074V62.5185H145.084C145.441 62.5185 145.744 62.4512 145.993 62.3232V62.3165Z" fill="#231F20"/>
<path d="M149.697 57.3333H154.741V58.6263H151.32V59.9461H154.451V61.1448H151.32V62.5589H154.828V63.8519H149.697V57.3401V57.3333Z" fill="#231F20"/>
<path d="M156.135 57.3333H158.391L159.778 61.6498H159.798L161.158 57.3333H163.414V63.8451H161.912V59.2323H161.865L160.404 63.8451H159.158L157.69 59.2458H157.65V63.8451H156.141V57.3333H156.135Z" fill="#231F20"/>
<path d="M166.619 61.4141L164.256 57.3333H166.067L167.441 59.9259L168.835 57.3333H170.633L168.236 61.4276V63.8519H166.613V61.4209L166.619 61.4141Z" fill="#231F20"/>
<path d="M177.266 21.2525C179.126 21.2525 180.633 19.7451 180.633 17.8855C180.633 16.026 179.126 14.5185 177.266 14.5185C175.406 14.5185 173.899 16.026 173.899 17.8855C173.899 19.7451 175.406 21.2525 177.266 21.2525Z" fill="#204885"/>
<path d="M143.461 20.8619C143.724 21.0438 143.946 21.5892 144.128 21.8451C146.606 25.3535 149.697 28.3704 152.276 31.798C153.246 33.0842 154.094 34.4983 154.492 36.0606C155.003 38.0673 154.727 40.2155 154.013 42.1616C152.976 44.9832 151.111 47.468 149.125 49.6902C148.094 50.835 147.003 51.9192 145.859 52.9495C145.286 53.468 144.707 53.9663 144.114 54.4579C143.623 54.8687 142.99 55.5892 142.397 55.8316C142.397 55.8316 171.178 44.1077 165.852 9.99326C165.852 9.99326 164.572 35.5757 143.468 20.8687L143.461 20.8619Z" fill="#E32729"/>
<path d="M156.256 23.6363C158.316 23.6363 159.987 21.9661 159.987 19.9057C159.987 17.8453 158.316 16.175 156.256 16.175C154.196 16.175 152.525 17.8453 152.525 19.9057C152.525 21.9661 154.196 23.6363 156.256 23.6363Z" fill="#E32729"/>
<path d="M167.751 10.6801C167.751 10.6801 171.232 20.2087 166.498 34.2289C166.498 34.2289 181.448 54.2895 186.444 64C186.444 64 178.707 33.7508 177.36 32.1145L192.835 16.2559L174.377 24.8081C174.377 24.8081 171.205 13.7508 167.744 10.6801H167.751Z" fill="#204885"/>
<path d="M167.077 0L168.438 2.75421L171.481 3.19192L169.279 5.33333L169.798 8.36364L167.077 6.93602L164.364 8.36364L164.882 5.33333L162.68 3.19192L165.724 2.75421L167.077 0Z" fill="#E32729"/>
</svg>
